<svg width="41" height="40" viewBox="0 0 41 40" fill="none" xmlns="http://www.w3.org/2000/svg">
<path d="M20.9956 21.8408C21.3442 21.8389 21.6371 21.6011 21.6351 21.2392L21.6351 21.2392C21.6341 21.061 21.5602 20.9213 21.44 20.8277C21.3214 20.7353 21.1619 20.6907 20.9918 20.6907H20.9918H20.9918H20.9918H20.9918H20.9917H20.9917H20.9917H20.9917H20.9917H20.9917H20.9917H20.9917H20.9917H20.9917H20.9917H20.9917H20.9917H20.9917H20.9917H20.9916H20.9916H20.9916H20.9916H20.9916H20.9916H20.9916H20.9916H20.9916H20.9916H20.9916H20.9916H20.9916H20.9916H20.9915H20.9915H20.9915H20.9915H20.9915H20.9915H20.9915H20.9915H20.9915H20.9915H20.9915H20.9915H20.9915H20.9915H20.9915H20.9914H20.9914H20.9914H20.9914H20.9914H20.9914H20.9914H20.9914H20.9914H20.9914H20.9914H20.9914H20.9914H20.9914H20.9914H20.9913H20.9913H20.9913H20.9913H20.9913H20.9913H20.9913H20.9913H20.9913H20.9913H20.9913H20.9913H20.9913H20.9913H20.9912H20.9912H20.9912H20.9912H20.9912H20.9912H20.9912H20.9912H20.9912H20.9912H20.9912H20.9912H20.9912H20.9912H20.9912H20.9911H20.9911H20.9911H20.9911H20.9911H20.9911H20.9911H20.9911H20.9911H20.9911H20.9911H20.9911H20.9911H20.9911H20.991H20.991H20.991H20.991H20.991H20.991H20.991H20.991H20.991H20.991H20.991H20.991H20.991H20.991H20.991H20.9909H20.9909H20.9909H20.9909H20.9909H20.9909H20.9909H20.9909H20.9909H20.9909H20.9909H20.9909H20.9909H20.9909H20.9909H20.9908H20.9908H20.9908H20.9908H20.9908H20.9908H20.9908H20.9908H20.9908H20.9908H20.9908H20.9908H20.9908H20.9908H20.9907H20.9907H20.9907H20.9907H20.9907H20.9907H20.9907H20.9907H20.9907H20.9907H20.9907H20.9907H20.9907H20.9907H20.9907H20.9906H20.9906H20.9906H20.9906H20.9906H20.9906H20.9906H20.9906H20.9906H20.9906H20.9906H20.9906H20.9906H20.9906H20.9906H20.9905H20.9905H20.9905H20.9905H20.9905H20.9905H20.9905H20.9905H20.9905H20.9905H20.9905H20.9905H20.9905H20.9905H20.9904H20.9904H20.9904H20.9904H20.9904H20.9904H20.9904H20.9904H20.9904H20.9904H20.9904H20.9904H20.9904H20.9904H20.9904H20.9903H20.9903H20.9903H20.9903H20.9903H20.9903H20.9903H20.9903H20.9903H20.9903H20.9903H20.9903H20.9903H20.9903H20.9902H20.9902H20.9902H20.9902H20.9902H20.9902H20.9902H20.9902H20.9902H20.9902H20.9902H20.9902H20.9902H20.9902H20.9902H20.9901H20.9901H20.9901H20.9901H20.9901H20.9901H20.9901H20.9901H20.9901H20.9901H20.9901H20.9901H20.9901H20.9901H20.9901H20.99H20.99H20.99H20.99H20.99H20.99H20.99H20.99H20.99H20.99H20.99H20.99H20.99H20.99H20.9899H20.9899H20.9899H20.9899H20.9899H20.9899H20.9899H20.9899H20.9899H20.9899H20.9899H20.9899H20.9899H20.9899H20.9899H20.9898H20.9898H20.9898H20.9898H20.9898H20.9898H20.9898H20.9898H20.9898H20.9898H20.9898H20.9898H20.9898H20.9898H20.9898H20.9897H20.9897H20.9897H20.9897H20.9897H20.9897H20.9897H20.9897H20.9897H20.9897H20.9897H20.9897H20.9897H20.9897H20.9896H20.9896H20.9896H20.9896H20.9896H20.9896H20.9896H20.9896H20.9896H20.9896H20.9896H20.9896H20.9896H20.9896H20.9896H20.9895H20.9895H20.9895H20.9895H20.9895H20.9895H20.9895H20.9895H20.9895H20.9895H20.9895H20.9895H20.9895H20.9895H20.9894H20.9894H20.9894H20.9894H20.9894H20.9894H20.9894H20.9894H20.9894H20.9894H20.9894H20.9894H20.9894H20.9894H20.9894H20.9893H20.9893H20.9893H20.9893H20.9893H20.9893H20.9893H20.9893H20.9893H20.9893H20.9893H20.9893H20.9893H20.9893H20.9893H20.9892H20.9892H20.9892H20.9892H20.9892H20.9892H20.9892H20.9892H20.9892H20.9892H20.9892H20.9892H20.9892H20.9892H20.9891H20.9891H20.9891H20.9891H20.9891H20.9891H20.9891H20.9891H20.9891H20.9891H20.9891H20.9891H20.9891H20.9891H20.9891H20.989H20.989H20.989H20.989H20.989H20.989H20.989H20.989H20.989H20.989H20.989H20.989H20.989H20.989H20.989H20.9889H20.9889H20.9889H20.9889H20.9889H20.9889H20.9889H20.9889H20.9889H20.9889H20.9889H20.9889H20.9889H20.9889H20.9888H20.9888H20.9888H20.9888H20.9888H20.9888H20.9888H20.9888H20.9888H20.9888H20.9888H20.9888H20.9888H20.9888H20.9888H20.9887H20.9887H20.9887H20.9887H20.9887H20.9887H20.9887H20.9887H20.9887H20.9887H20.9887H20.9887H20.9887H20.9887H20.9886H20.9886H20.9886H20.9886H20.9886H20.9886H20.9886H20.9886H20.9886H20.9886H20.9886H20.9886H20.9886H20.9886H20.9886H20.9885H20.9885H20.9885H20.9885H20.9885H20.9885H20.9885H20.9885H20.9885H20.9885H20.9885H20.9885H20.9885H20.9885H20.9885H20.9884H20.9884H20.9884H20.9884H20.9884H20.9884H20.9884H20.9884H20.9884H20.9884H20.9884H20.9884H20.9884H20.9884H20.9883H20.9883H20.9883H20.9883H20.9883H20.9883H20.9883H20.9883H20.9883H20.9883H20.9883C20.8487 20.6907 20.7095 20.6837 20.5683 20.6766C20.5036 20.6734 20.4385 20.6701 20.3727 20.6675C20.1653 20.6592 19.9549 20.6576 19.7449 20.6854L19.7528 20.7449L19.7451 20.6854C19.5756 20.7073 19.4256 20.7728 19.323 20.881C19.2191 20.9906 19.1684 21.1394 19.1917 21.3162L19.2511 21.3083L19.1917 21.3162C19.2341 21.6396 19.5103 21.8748 19.8277 21.8753M20.9956 21.8408C20.9956 21.8408 20.9956 21.8408 20.9956 21.8408L20.9953 21.7808L20.9957 21.8408C20.9957 21.8408 20.9956 21.8408 20.9956 21.8408ZM20.9956 21.8408C20.6333 21.8432 20.2702 21.8456 19.9134 21.8922L19.9056 21.8328L19.9136 21.8922C19.8845 21.8961 19.8588 21.8865 19.8467 21.8819C19.8463 21.8817 19.846 21.8816 19.8456 21.8815C19.8441 21.8809 19.8427 21.8804 19.8414 21.8799C19.8363 21.878 19.8333 21.8769 19.8302 21.8759C19.8289 21.8755 19.8281 21.8753 19.8277 21.8753M19.8277 21.8753C19.828 21.8753 19.8283 21.8753 19.8286 21.8753C19.8278 21.8753 19.8274 21.8752 19.8274 21.8752C19.8274 21.8752 19.8275 21.8752 19.8277 21.8753Z" fill="#3A3A3A" stroke="#3A3A3A" stroke-width="0.12"/>
<path d="M37.6661 31.774H31.2021C31.1988 31.6076 31.1309 31.4548 31.0216 31.3417C31.1571 31.2242 31.243 31.0502 31.243 30.8564C31.243 26.601 28.5925 22.7141 24.6458 21.1838C24.3158 21.0558 23.9421 21.2191 23.8134 21.5511C23.6847 21.8824 23.8488 22.2549 24.1807 22.3836C27.6346 23.7226 29.9564 27.1278 29.9564 30.8564C29.9564 31.0298 30.0251 31.1873 30.1371 31.3032C30.0132 31.4107 29.9298 31.5653 29.9175 31.7415C29.9175 31.7416 29.9175 31.7417 29.9174 31.7418L29.9149 31.774H19.4699H15.97H14.8033H12.166C12.1386 31.428 12.1264 31.1643 12.1264 30.9287C12.1264 27.5958 13.9334 24.5172 16.842 22.8939C17.1528 22.7215 17.2641 22.3291 17.0904 22.019C16.9179 21.7081 16.5254 21.5977 16.2155 21.7706C12.9001 23.6205 10.8403 27.1294 10.8403 30.9287C10.8403 31.1759 10.8513 31.4418 10.8759 31.774H3.83332C3.47761 31.774 3.19 32.0616 3.19 32.4174C3.19 32.7731 3.47761 33.0607 3.83332 33.0607H14.8033H15.97H19.4699H30.5052H37.6661C38.0218 33.0607 38.3094 32.7731 38.3094 32.4174C38.3094 32.0616 38.0218 31.774 37.6661 31.774Z" fill="#3A3A3A" stroke="#3A3A3A" stroke-width="0.12"/>
<path d="M20.7497 15.5611C21.1054 15.5611 21.393 15.2735 21.393 14.9177V11.4178C21.393 11.0621 21.1054 10.7745 20.7497 10.7745C20.394 10.7745 20.1064 11.0621 20.1064 11.4178V14.9177C20.1064 15.2735 20.394 15.5611 20.7497 15.5611Z" fill="#3A3A3A" stroke="#3A3A3A" stroke-width="0.12"/>
<path d="M20.7497 19.0608C21.1054 19.0608 21.393 18.7732 21.393 18.4175V17.2508C21.393 16.8951 21.1054 16.6075 20.7497 16.6075C20.394 16.6075 20.1064 16.8951 20.1064 17.2508V18.4175C20.1064 18.7732 20.394 19.0608 20.7497 19.0608Z" fill="#3A3A3A" stroke="#3A3A3A" stroke-width="0.12"/>
<path d="M34.5919 16.8254C34.3404 16.5739 33.9338 16.5739 33.6823 16.8254L31.549 18.9586C31.2975 19.2101 31.2975 19.6168 31.549 19.8683C31.6745 19.9937 31.8392 20.0568 32.0039 20.0568C32.1685 20.0568 32.3333 19.9937 32.4587 19.8683L34.5919 17.7351C34.8434 17.4836 34.8434 17.0769 34.5919 16.8254Z" fill="#3A3A3A" stroke="#3A3A3A" stroke-width="0.12"/>
<path d="M29.8993 20.6081L29.0739 21.4335C28.8224 21.685 28.8224 22.0917 29.0739 22.3432C29.1994 22.4686 29.3641 22.5317 29.5288 22.5317C29.6932 22.5317 29.8581 22.4693 29.9837 22.3432C29.9837 22.3431 29.9837 22.3431 29.9837 22.3431L30.809 21.5178C31.0605 21.2663 31.0605 20.8596 30.809 20.6081C30.5575 20.3566 30.1509 20.3566 29.8993 20.6081Z" fill="#3A3A3A" stroke="#3A3A3A" stroke-width="0.12"/>
<path d="M35.9162 28.9776H37.6662C38.0219 28.9776 38.3095 28.69 38.3095 28.3343C38.3095 27.9786 38.0219 27.691 37.6662 27.691H35.9162C35.5605 27.691 35.2729 27.9786 35.2729 28.3343C35.2729 28.69 35.5605 28.9776 35.9162 28.9776Z" fill="#3A3A3A" stroke="#3A3A3A" stroke-width="0.12"/>
<path d="M32.4163 27.691C32.0606 27.691 31.773 27.9786 31.773 28.3343C31.773 28.69 32.0606 28.9776 32.4163 28.9776H33.583C33.9387 28.9776 34.2263 28.69 34.2263 28.3343C34.2263 27.9786 33.9387 27.691 33.583 27.691H32.4163Z" fill="#3A3A3A" stroke="#3A3A3A" stroke-width="0.12"/>
<path d="M6.16667 27.691H4.4167C4.06098 27.691 3.77337 27.9786 3.77337 28.3343C3.77337 28.69 4.06098 28.9776 4.4167 28.9776H6.16667C6.52238 28.9776 6.80999 28.69 6.80999 28.3343C6.80999 27.9786 6.52238 27.691 6.16667 27.691Z" fill="#3A3A3A" stroke="#3A3A3A" stroke-width="0.12"/>
<path d="M8.49995 27.691C8.14423 27.691 7.85663 27.9786 7.85663 28.3343C7.85663 28.69 8.14423 28.9776 8.49995 28.9776H9.6666C10.0223 28.9776 10.3099 28.69 10.3099 28.3343C10.3099 27.9786 10.0223 27.691 9.6666 27.691H8.49995Z" fill="#3A3A3A" stroke="#3A3A3A" stroke-width="0.12"/>
<path d="M10.6624 20.0568C10.827 20.0568 10.9918 19.9937 11.1172 19.8683C11.3687 19.6168 11.3687 19.2101 11.1172 18.9586L8.98398 16.8254C8.73247 16.5739 8.32582 16.5739 8.07431 16.8254C7.8228 17.0769 7.8228 17.4836 8.07431 17.7351L10.2075 19.8683C10.333 19.9937 10.4977 20.0568 10.6624 20.0568Z" fill="#3A3A3A" stroke="#3A3A3A" stroke-width="0.12"/>
<path d="M11.8571 20.6081C11.6056 20.8596 11.6056 21.2663 11.8571 21.5178L12.6826 22.3432C12.808 22.4686 12.9728 22.5317 13.1374 22.5317C13.3019 22.5317 13.4667 22.4693 13.5923 22.3431C13.8437 22.0916 13.8437 21.685 13.5922 21.4335L12.7668 20.6081C12.5153 20.3566 12.1087 20.3566 11.8571 20.6081Z" fill="#3A3A3A" stroke="#3A3A3A" stroke-width="0.12"/>
<path d="M10.862 13.6996V14.1996C11.7668 14.1996 12.4994 13.466 12.4994 12.5622C12.4994 11.8063 11.9871 11.1682 11.2891 10.9803C11.0522 10.1263 10.2693 9.5 9.3405 9.5C8.48793 9.5 7.75959 10.0272 7.46181 10.7727C6.94983 10.8717 6.51931 11.1964 6.2763 11.6385C5.69016 11.7617 5.24939 12.2816 5.24939 12.9052C5.24939 13.6201 5.82836 14.1996 6.54313 14.1996H6.54322H6.54341H6.54369H6.54407H6.54455H6.54512H6.54579H6.54656H6.54742H6.54838H6.54943H6.55058H6.55182H6.55315H6.55458H6.5561H6.55771H6.55941H6.56121H6.5631H6.56507H6.56714H6.5693H6.57155H6.57389H6.57631H6.57883H6.58143H6.58412H6.5869H6.58976H6.59271H6.59575H6.59887H6.60208H6.60538H6.60876H6.61222H6.61577H6.6194H6.62311H6.62691H6.63079H6.63475H6.63879H6.64291H6.64712H6.6514H6.65577H6.66021H6.66474H6.66934H6.67402H6.67878H6.68362H6.68853H6.69352H6.69859H6.70374H6.70896H6.71425H6.71962H6.72507H6.73059H6.73618H6.74185H6.74759H6.7534H6.75929H6.76524H6.77127H6.77737H6.78354H6.78978H6.79609H6.80248H6.80893H6.81544H6.82203H6.82869H6.83541H6.8422H6.84906H6.85598H6.86297H6.87003H6.87715H6.88434H6.89159H6.89891H6.90629H6.91373H6.92124H6.9288H6.93644H6.94413H6.95188H6.9597H6.96758H6.97551H6.98351H6.99157H6.99968H7.00786H7.01609H7.02438H7.03273H7.04114H7.0496H7.05812H7.0667H7.07533H7.08402H7.09276H7.10156H7.11041H7.11931H7.12827H7.13728H7.14635H7.15547H7.16463H7.17385H7.18313H7.19245H7.20182H7.21124H7.22072H7.23024H7.23981H7.24943H7.25909H7.26881H7.27857H7.28838H7.29823H7.30813H7.31808H7.32807H7.33811H7.34819H7.35832H7.36849H7.37871H7.38896H7.39926H7.4096H7.41999H7.43041H7.44088H7.45139H7.46193H7.47252H7.48315H7.49382H7.50452H7.51526H7.52605H7.53687H7.54772H7.55862H7.56955H7.58051H7.59151H7.60255H7.61362H7.62473H7.63587H7.64705H7.65826H7.6695H7.68077H7.69208H7.70342H7.71479H7.72619H7.73762H7.74908H7.76058H7.7721H7.78365H7.79523H7.80684H7.81847H7.83014H7.84183H7.85355H7.86529H7.87706H7.88886H7.90068H7.91253H7.9244H7.93629H7.94821H7.96016H7.97212H7.98411H7.99612H8.00815H8.02021H8.03228H8.04438H8.0565H8.06863H8.08079H8.09296H8.10516H8.11737H8.1296H8.14185H8.15411H8.16639H8.17869H8.19101H8.20334H8.21568H8.22804H8.24042H8.25281H8.26521H8.27763H8.29006H8.3025H8.31496H8.32742H8.3399H8.35239H8.36489H8.3774H8.38992H8.40245H8.41499H8.42754H8.44009H8.45266H8.46523H8.47781H8.49039H8.50298H8.51558H8.52819H8.5408H8.55341H8.56603H8.57865H8.59128H8.60391H8.61654H8.62918H8.64181H8.65445H8.6671H8.67974H8.69238H8.70502H8.71767H8.73031H8.74295H8.75559H8.76823H8.78087H8.7935H8.80614H8.81877H8.83139H8.84401H8.85663H8.86924H8.88185H8.89445H8.90705H8.91964H8.93222H8.9448H8.95736H8.96993H8.98248H8.99502H9.00756H9.02008H9.0326H9.04511H9.0576H9.07009H9.08256H9.09502H9.10747H9.11991H9.13233H9.14475H9.15714H9.16953H9.1819H9.19425H9.20659H9.21892H9.23122H9.24352H9.25579H9.26805H9.28029H9.29252H9.30472H9.31691H9.32908H9.34122H9.35335H9.36546H9.37755H9.38962H9.40166H9.41369H9.42569H9.43767H9.44963H9.46156H9.47347H9.48536H9.49722H9.50905H9.52087H9.53265H9.54441H9.55615H9.56786H9.57954H9.59119H9.60282H9.61441H9.62598H9.63752H9.64903H9.66051H9.67196H9.68338H9.69477H9.70613H9.71746H9.72875H9.74001H9.75124H9.76244H9.7736H9.78473H9.79582H9.80688H9.8179H9.82889H9.83984H9.85076H9.86164H9.87248H9.88329H9.89405H9.90478H9.91547H9.92612H9.93673H9.94731H9.95784H9.96833H9.97878H9.98919H9.99956H10.0099H10.0202H10.0304H10.0406H10.0508H10.0609H10.0709H10.081H10.0909H10.1009H10.1107H10.1206H10.1304H10.1401H10.1498H10.1595H10.1691H10.1786H10.1881H10.1976H10.207H10.2163H10.2256H10.2349H10.2441H10.2532H10.2623H10.2714H10.2804H10.2893H10.2982H10.307H10.3158H10.3245H10.3332H10.3418H10.3503H10.3588H10.3673H10.3757H10.384H10.3923H10.4005H10.4086H10.4167H10.4247H10.4327H10.4406H10.4485H10.4563H10.464H10.4717H10.4793H10.4868H10.4943H10.5017H10.5091H10.5164H10.5236H10.5308H10.5379H10.5449H10.5519H10.5588H10.5656H10.5723H10.579H10.5857H10.5922H10.5987H10.6052H10.6115H10.6178H10.624H10.6301H10.6362H10.6422H10.6481H10.654H10.6598H10.6655H10.6711H10.6767H10.6822H10.6876H10.693H10.6982H10.7034H10.7085H10.7136H10.7185H10.7234H10.7282H10.7329H10.7376H10.7422H10.7467H10.7511H10.7554H10.7597H10.7638H10.7679H10.7719H10.7759H10.7797H10.7835H10.7872H10.7908H10.7943H10.7977H10.8011H10.8043H10.8075H10.8106H10.8136H10.8165H10.8193H10.8221H10.8247H10.8273H10.8298H10.8322H10.8345H10.8367H10.8388H10.8408H10.8428H10.8446H10.8464H10.8481H10.8496H10.8511H10.8525H10.8538H10.855H10.8561H10.8571H10.8581H10.8589H10.8596H10.8603H10.8608H10.8612H10.8616H10.8618H10.862L10.862 13.6996Z" stroke="#3A3A3A"/>
<path d="M36.2021 13.75V14.25C37.5794 14.25 38.7494 13.1945 38.7494 11.8285C38.7494 10.6086 37.8167 9.63452 36.635 9.441C36.3258 8.02771 35.0016 7 33.4634 7C32.0449 7 30.8138 7.8706 30.3845 9.11175C29.4347 9.20862 28.6194 9.77287 28.2215 10.5766C27.2777 10.6746 26.4994 11.4314 26.4994 12.4079C26.4994 13.4549 27.393 14.25 28.4281 14.25H28.4283H28.4286H28.4291H28.4298H28.4307H28.4317H28.4329H28.4343H28.4358H28.4376H28.4395H28.4415H28.4438H28.4462H28.4487H28.4515H28.4544H28.4574H28.4607H28.4641H28.4676H28.4713H28.4752H28.4793H28.4835H28.4878H28.4924H28.4971H28.5019H28.5069H28.5121H28.5174H28.5228H28.5285H28.5342H28.5402H28.5463H28.5525H28.5589H28.5654H28.5721H28.5789H28.5859H28.593H28.6003H28.6077H28.6153H28.623H28.6309H28.6389H28.647H28.6553H28.6637H28.6723H28.681H28.6898H28.6988H28.708H28.7172H28.7266H28.7361H28.7458H28.7556H28.7655H28.7756H28.7858H28.7961H28.8066H28.8172H28.8279H28.8388H28.8498H28.8609H28.8721H28.8835H28.8949H28.9066H28.9183H28.9301H28.9421H28.9542H28.9665H28.9788H28.9913H29.0038H29.0165H29.0294H29.0423H29.0554H29.0685H29.0818H29.0952H29.1087H29.1223H29.1361H29.1499H29.1639H29.1779H29.1921H29.2064H29.2208H29.2353H29.2499H29.2646H29.2795H29.2944H29.3094H29.3245H29.3398H29.3551H29.3705H29.3861H29.4017H29.4175H29.4333H29.4492H29.4653H29.4814H29.4976H29.5139H29.5303H29.5468H29.5634H29.5801H29.5969H29.6138H29.6307H29.6478H29.6649H29.6821H29.6995H29.7169H29.7343H29.7519H29.7696H29.7873H29.8051H29.823H29.841H29.8591H29.8772H29.8955H29.9138H29.9322H29.9506H29.9692H29.9878H30.0065H30.0252H30.0441H30.063H30.082H30.101H30.1202H30.1394H30.1586H30.178H30.1974H30.2168H30.2364H30.256H30.2757H30.2954H30.3152H30.3351H30.355H30.375H30.3951H30.4152H30.4354H30.4556H30.4759H30.4962H30.5166H30.5371H30.5576H30.5782H30.5988H30.6195H30.6403H30.6611H30.6819H30.7028H30.7237H30.7447H30.7658H30.7869H30.808H30.8292H30.8504H30.8717H30.893H30.9144H30.9358H30.9573H30.9788H31.0003H31.0219H31.0435H31.0652H31.0869H31.1086H31.1304H31.1522H31.174H31.1959H31.2178H31.2398H31.2618H31.2838H31.3058H31.3279H31.35H31.3721H31.3943H31.4165H31.4387H31.461H31.4832H31.5055H31.5279H31.5502H31.5726H31.595H31.6174H31.6398H31.6623H31.6848H31.7073H31.7298H31.7523H31.7749H31.7975H31.8201H31.8427H31.8653H31.8879H31.9105H31.9332H31.9559H31.9785H32.0012H32.0239H32.0466H32.0693H32.0921H32.1148H32.1375H32.1603H32.183H32.2058H32.2285H32.2513H32.274H32.2968H32.3195H32.3423H32.365H32.3878H32.4106H32.4333H32.4561H32.4788H32.5015H32.5243H32.547H32.5697H32.5924H32.6151H32.6378H32.6605H32.6832H32.7058H32.7285H32.7511H32.7737H32.7964H32.8189H32.8415H32.8641H32.8866H32.9092H32.9317H32.9542H32.9766H32.9991H33.0215H33.0439H33.0663H33.0887H33.111H33.1333H33.1556H33.1779H33.2001H33.2224H33.2445H33.2667H33.2888H33.3109H33.333H33.355H33.377H33.399H33.4209H33.4428H33.4647H33.4865H33.5083H33.5301H33.5518H33.5735H33.5951H33.6167H33.6383H33.6598H33.6813H33.7027H33.7241H33.7455H33.7668H33.788H33.8093H33.8304H33.8516H33.8726H33.8937H33.9146H33.9356H33.9564H33.9773H33.998H34.0187H34.0394H34.06H34.0806H34.1011H34.1215H34.1419H34.1622H34.1825H34.2027H34.2229H34.243H34.263H34.283H34.3029H34.3227H34.3425H34.3622H34.3819H34.4014H34.421H34.4404H34.4598H34.4791H34.4983H34.5175H34.5366H34.5556H34.5746H34.5935H34.6123H34.631H34.6497H34.6683H34.6868H34.7052H34.7236H34.7419H34.76H34.7782H34.7962H34.8142H34.832H34.8498H34.8675H34.8852H34.9027H34.9201H34.9375H34.9548H34.972H34.9891H35.0061H35.023H35.0399H35.0566H35.0733H35.0898H35.1063H35.1227H35.1389H35.1551H35.1712H35.1872H35.2031H35.2189H35.2346H35.2502H35.2657H35.2811H35.2964H35.3116H35.3267H35.3417H35.3565H35.3713H35.386H35.4006H35.415H35.4294H35.4436H35.4578H35.4718H35.4857H35.4995H35.5132H35.5268H35.5402H35.5536H35.5668H35.58H35.593H35.6059H35.6186H35.6313H35.6438H35.6562H35.6685H35.6807H35.6928H35.7047H35.7165H35.7282H35.7398H35.7512H35.7625H35.7737H35.7848H35.7957H35.8065H35.8172H35.8277H35.8381H35.8484H35.8585H35.8686H35.8784H35.8882H35.8978H35.9073H35.9166H35.9258H35.9349H35.9438H35.9526H35.9613H35.9698H35.9782H35.9864H35.9945H36.0024H36.0102H36.0179H36.0254H36.0328H36.04H36.0471H36.054H36.0608H36.0674H36.0739H36.0802H36.0864H36.0924H36.0983H36.104H36.1095H36.1149H36.1202H36.1253H36.1302H36.135H36.1396H36.1441H36.1484H36.1525H36.1565H36.1604H36.164H36.1675H36.1708H36.174H36.177H36.1799H36.1825H36.185H36.1874H36.1895H36.1915H36.1934H36.195H36.1965H36.1978H36.1989H36.1999H36.2007H36.2013H36.2018H36.202L36.2021 13.75Z" stroke="#3A3A3A"/>
</svg>
