<svg width="33" height="33" viewBox="0 0 33 33" fill="none" xmlns="http://www.w3.org/2000/svg">
<path d="M15.8483 29.0385C9.17723 29.0385 3.75 23.6113 3.75 16.9411C3.75 10.337 9.10209 4.91249 15.6799 4.84912C15.6808 4.84912 15.6818 4.84912 15.6827 4.84912C15.8121 4.84912 15.928 4.92517 15.9805 5.04285C16.033 5.16145 16.0104 5.30086 15.9217 5.39682C13.9789 7.48986 12.9079 10.2519 12.9079 13.1733C12.9079 19.485 18.0428 24.6198 24.3545 24.6198L24.3662 24.8443L24.3907 24.618C24.5373 24.6044 24.6767 24.6796 24.7356 24.8C24.7944 24.9204 24.798 25.0634 24.7075 25.1612C22.4208 27.6254 19.1907 29.0385 15.8483 29.0385ZM14.9403 5.53262C9.06497 5.97621 4.40181 10.9445 4.40181 16.942C4.40181 23.2528 9.53663 28.3867 15.8483 28.3867C18.8059 28.3867 21.5653 27.2796 23.6999 25.2544C17.3321 24.9122 12.257 19.6244 12.257 13.1733C12.257 10.3488 13.204 7.66458 14.9403 5.53262ZM27.6135 21.7962C27.4334 21.7962 27.2876 21.6504 27.2876 21.4703V19.9856H25.8029C25.6228 19.9856 25.477 19.8399 25.477 19.6597C25.477 19.4796 25.6228 19.3338 25.8029 19.3338H27.2876V17.8491C27.2876 17.669 27.4334 17.5232 27.6135 17.5232C27.7937 17.5232 27.9394 17.669 27.9394 17.8491V19.3338H29.4241C29.6042 19.3338 29.75 19.4796 29.75 19.6597C29.75 19.8399 29.6042 19.9856 29.4241 19.9856H27.9394V21.4703C27.9394 21.6504 27.7937 21.7962 27.6135 21.7962ZM18.5606 13.6486C18.3804 13.6486 18.2347 13.5028 18.2347 13.3227V11.838H16.75C16.5698 11.838 16.4241 11.6922 16.4241 11.5121C16.4241 11.3319 16.5698 11.1862 16.75 11.1862H18.2347V9.70149C18.2347 9.52134 18.3804 9.37558 18.5606 9.37558C18.7407 9.37558 18.8865 9.52224 18.8865 9.70149V11.1862H20.3712C20.5513 11.1862 20.6971 11.3319 20.6971 11.5121C20.6971 11.6922 20.5513 11.838 20.3712 11.838H18.8865V13.3227C18.8865 13.5028 18.7407 13.6486 18.5606 13.6486ZM23.9923 10.0274C23.8122 10.0274 23.6664 9.88164 23.6664 9.70149V8.21681H22.1818C22.0016 8.21681 21.8558 8.07106 21.8558 7.8909C21.8558 7.71075 22.0016 7.565 22.1818 7.565H23.6664V6.08032C23.6664 5.90017 23.8122 5.75441 23.9923 5.75441C24.1725 5.75441 24.3182 5.90107 24.3182 6.08032V7.565H25.8029C25.9831 7.565 26.1288 7.71075 26.1288 7.8909C26.1288 8.07106 25.9831 8.21681 25.8029 8.21681H24.3182V9.70149C24.3182 9.88164 24.1725 10.0274 23.9923 10.0274Z" fill="#525252" stroke="#525252" stroke-width="0.5"/>
</svg>
