<svg width="33" height="33" viewBox="0 0 33 33" fill="none" xmlns="http://www.w3.org/2000/svg">
<path d="M30.8348 17.9702C29.5372 17.9702 28.9144 18.1259 28.2915 18.2816C27.7206 18.4374 27.1497 18.5412 26.0078 18.5412C25.2292 18.5412 24.7621 18.4893 24.295 18.3855C24.5026 17.6588 24.6064 16.9322 24.6064 16.1536C24.6064 11.5861 20.8694 7.84912 16.3019 7.84912C11.7344 7.84912 7.99741 11.5861 7.99741 16.1536C7.99741 16.9322 8.10121 17.6588 8.30882 18.3855C7.8936 18.4893 7.37457 18.5412 6.59602 18.5412C5.45415 18.5412 4.88322 18.3855 4.31228 18.2816C3.68945 18.1259 3.06661 17.9702 1.76903 17.9702C1.45761 17.9702 1.25 18.1778 1.25 18.4893C1.25 18.8007 1.45761 19.0083 1.76903 19.0083C2.9109 19.0083 3.48183 19.164 4.05277 19.2678C4.67561 19.4235 5.29844 19.5792 6.59602 19.5792C7.8936 19.5792 8.51644 19.4235 9.13927 19.2678C9.71021 19.1121 10.2811 19.0083 11.423 19.0083C12.5649 19.0083 13.1358 19.164 13.7067 19.2678C14.3296 19.4235 14.9524 19.5792 16.25 19.5792C17.5476 19.5792 18.1704 19.4235 18.7933 19.2678C19.3642 19.1121 19.9351 19.0083 21.077 19.0083C22.2189 19.0083 22.7898 19.164 23.3607 19.2678C23.9836 19.4235 24.6064 19.5792 25.904 19.5792C27.2016 19.5792 27.8244 19.4235 28.4472 19.2678C29.0182 19.1121 29.5891 19.0083 30.731 19.0083C31.0424 19.0083 31.25 18.8007 31.25 18.4893C31.25 18.1778 31.1462 17.9702 30.8348 17.9702ZM18.5856 18.2816C18.0147 18.4374 17.4438 18.5412 16.3019 18.5412C15.16 18.5412 14.5891 18.3855 14.0182 18.2816C13.3953 18.1259 12.7725 17.9702 11.4749 17.9702C10.4888 17.9702 9.86592 18.074 9.34689 18.1778C9.13927 17.555 9.03547 16.8803 9.03547 16.2055C9.03547 12.209 12.3054 8.93909 16.3019 8.93909C20.2984 8.93909 23.5683 12.209 23.5683 16.2055C23.5683 16.8803 23.4645 17.555 23.3088 18.1778C22.7898 18.074 22.167 17.9702 21.1808 17.9702C19.8832 17.9702 19.2085 18.1259 18.5856 18.2816Z" fill="#525252"/>
<path d="M26.6826 20.5759C25.4369 20.5759 24.814 20.4721 24.1912 20.3683C23.5165 20.2645 22.8417 20.1606 21.4922 20.1606C20.1428 20.1606 19.468 20.2645 18.7933 20.3683C18.1704 20.4721 17.5476 20.5759 16.3019 20.5759C15.0563 20.5759 14.4334 20.4721 13.8106 20.3683C13.1358 20.2645 12.4611 20.1606 11.1116 20.1606C9.76214 20.1606 9.0874 20.2645 8.41266 20.3683C7.78983 20.4721 7.16699 20.5759 5.92131 20.5759C5.6099 20.5759 5.40228 20.7835 5.40228 21.0949C5.40228 21.4063 5.6099 21.6139 5.92131 21.6139C7.27079 21.6139 7.94554 21.5101 8.62028 21.4063C9.24311 21.3025 9.86595 21.1987 11.1116 21.1987C12.3573 21.1987 12.9801 21.3025 13.603 21.4063C14.2777 21.5101 14.9525 21.6139 16.3019 21.6139C17.6514 21.6139 18.3262 21.5101 19.0009 21.4063C19.6237 21.3025 20.2466 21.1987 21.4922 21.1987C22.7379 21.1987 23.3608 21.3025 23.9836 21.4063C24.6583 21.5101 25.3331 21.6139 26.6826 21.6139C26.994 21.6139 27.2016 21.4063 27.2016 21.0949C27.2016 20.7835 26.994 20.5759 26.6826 20.5759Z" fill="#525252"/>
<path d="M23.5683 23.119C22.686 23.119 22.2707 23.0671 21.8555 22.9633C21.3884 22.9114 20.9213 22.8076 19.9351 22.8076C19.0008 22.8076 18.4818 22.8595 18.0147 22.9633C17.5476 23.0152 17.1323 23.119 16.3019 23.119C15.4195 23.119 15.0043 23.0671 14.5891 22.9633C14.122 22.9114 13.6548 22.8076 12.6687 22.8076C11.6825 22.8076 11.2154 22.8595 10.7483 22.9633C10.2811 23.0152 9.8659 23.119 9.03545 23.119C8.72403 23.119 8.51642 23.3266 8.51642 23.6381C8.51642 23.9495 8.72403 24.1571 9.03545 24.1571C9.96971 24.1571 10.4887 24.1052 10.9559 24.0014C11.423 23.9495 11.8382 23.8457 12.6687 23.8457C13.4991 23.8457 13.9662 23.8976 14.3815 24.0014C14.8486 24.0533 15.3157 24.1571 16.3019 24.1571C17.2361 24.1571 17.7552 24.1052 18.2223 24.0014C18.6894 23.9495 19.1047 23.8457 19.9351 23.8457C20.8175 23.8457 21.2327 23.8976 21.6479 24.0014C22.115 24.0533 22.5822 24.1571 23.5683 24.1571C23.8797 24.1571 24.0874 23.9495 24.0874 23.6381C24.0874 23.3266 23.8797 23.119 23.5683 23.119Z" fill="#525252"/>
<path d="M19.9352 25.6103C19.52 25.6103 19.3124 25.5584 19.1047 25.5584C18.8971 25.5065 18.5857 25.4546 18.1186 25.4546C17.6514 25.4546 17.34 25.5065 17.1324 25.5584C16.9248 25.5584 16.7172 25.6103 16.302 25.6103C15.8867 25.6103 15.6791 25.5584 15.4715 25.5584C15.2639 25.5065 14.9525 25.4546 14.4854 25.4546C13.9663 25.4546 13.7068 25.5065 13.4992 25.5584C13.2916 25.5584 13.084 25.6103 12.6688 25.6103C12.3573 25.6103 12.1497 25.8179 12.1497 26.1293C12.1497 26.4407 12.3573 26.6484 12.6688 26.6484C13.1878 26.6484 13.4473 26.5965 13.6549 26.5446C13.8625 26.4927 14.0701 26.4927 14.4854 26.4927C14.9006 26.4927 15.1082 26.5446 15.3158 26.5446C15.5234 26.5965 15.8348 26.6484 16.302 26.6484C16.821 26.6484 17.0805 26.5965 17.2881 26.5446C17.4957 26.4927 17.7034 26.4927 18.1186 26.4927C18.5338 26.4927 18.7414 26.5446 18.949 26.5446C19.1566 26.5965 19.4681 26.6484 19.9352 26.6484C20.2466 26.6484 20.4542 26.4407 20.4542 26.1293C20.4542 25.8179 20.2466 25.6103 19.9352 25.6103Z" fill="#525252"/>
</svg>
