<svg width="33" height="33" viewBox="0 0 33 33" fill="none" xmlns="http://www.w3.org/2000/svg">
<path d="M30.8348 20.9702C29.5372 20.9702 28.9144 21.1259 28.2915 21.2816C27.7206 21.4374 27.1497 21.5412 26.0078 21.5412C25.2292 21.5412 24.7621 21.4893 24.295 21.3855C24.5026 20.6588 24.6064 19.9322 24.6064 19.1536C24.6064 14.5861 20.8694 10.8491 16.3019 10.8491C11.7344 10.8491 7.99741 14.5861 7.99741 19.1536C7.99741 19.9322 8.10121 20.6588 8.30882 21.3855C7.8936 21.4893 7.37457 21.5412 6.59602 21.5412C5.45415 21.5412 4.88322 21.3855 4.31228 21.2816C3.68945 21.1259 3.06661 20.9702 1.76903 20.9702C1.45761 20.9702 1.25 21.1778 1.25 21.4893C1.25 21.8007 1.45761 22.0083 1.76903 22.0083C2.9109 22.0083 3.48183 22.164 4.05277 22.2678C4.67561 22.4235 5.29844 22.5792 6.59602 22.5792C7.8936 22.5792 8.51644 22.4235 9.13927 22.2678C9.71021 22.1121 10.2811 22.0083 11.423 22.0083C12.5649 22.0083 13.1358 22.164 13.7067 22.2678C14.3296 22.4235 14.9524 22.5792 16.25 22.5792C17.5476 22.5792 18.1704 22.4235 18.7933 22.2678C19.3642 22.1121 19.9351 22.0083 21.077 22.0083C22.2189 22.0083 22.7898 22.164 23.3607 22.2678C23.9836 22.4235 24.6064 22.5792 25.904 22.5792C27.2016 22.5792 27.8244 22.4235 28.4472 22.2678C29.0182 22.1121 29.5891 22.0083 30.731 22.0083C31.0424 22.0083 31.25 21.8007 31.25 21.4893C31.25 21.1778 31.1462 20.9702 30.8348 20.9702ZM18.5856 21.2816C18.0147 21.4374 17.4438 21.5412 16.3019 21.5412C15.16 21.5412 14.5891 21.3855 14.0182 21.2816C13.3953 21.1259 12.7725 20.9702 11.4749 20.9702C10.4888 20.9702 9.86592 21.074 9.34689 21.1778C9.13927 20.555 9.03547 19.8803 9.03547 19.2055C9.03547 15.209 12.3054 11.9391 16.3019 11.9391C20.2984 11.9391 23.5683 15.209 23.5683 19.2055C23.5683 19.8803 23.4645 20.555 23.3088 21.1778C22.7898 21.074 22.167 20.9702 21.1808 20.9702C19.8832 20.9702 19.2085 21.1259 18.5856 21.2816Z" fill="#525252"/>
<path d="M26.6826 23.5759C25.4369 23.5759 24.814 23.4721 24.1912 23.3683C23.5165 23.2645 22.8417 23.1606 21.4922 23.1606C20.1428 23.1606 19.468 23.2645 18.7933 23.3683C18.1704 23.4721 17.5476 23.5759 16.3019 23.5759C15.0563 23.5759 14.4334 23.4721 13.8106 23.3683C13.1358 23.2645 12.4611 23.1606 11.1116 23.1606C9.76214 23.1606 9.0874 23.2645 8.41266 23.3683C7.78983 23.4721 7.16699 23.5759 5.92131 23.5759C5.6099 23.5759 5.40228 23.7835 5.40228 24.0949C5.40228 24.4063 5.6099 24.6139 5.92131 24.6139C7.27079 24.6139 7.94554 24.5101 8.62028 24.4063C9.24311 24.3025 9.86595 24.1987 11.1116 24.1987C12.3573 24.1987 12.9801 24.3025 13.603 24.4063C14.2777 24.5101 14.9525 24.6139 16.3019 24.6139C17.6514 24.6139 18.3262 24.5101 19.0009 24.4063C19.6237 24.3025 20.2466 24.1987 21.4922 24.1987C22.7379 24.1987 23.3608 24.3025 23.9836 24.4063C24.6583 24.5101 25.3331 24.6139 26.6826 24.6139C26.994 24.6139 27.2016 24.4063 27.2016 24.0949C27.2016 23.7835 26.994 23.5759 26.6826 23.5759Z" fill="#525252"/>
<path d="M23.5683 26.119C22.686 26.119 22.2707 26.0671 21.8555 25.9633C21.3884 25.9114 20.9213 25.8076 19.9351 25.8076C19.0008 25.8076 18.4818 25.8595 18.0147 25.9633C17.5476 26.0152 17.1323 26.119 16.3019 26.119C15.4195 26.119 15.0043 26.0671 14.5891 25.9633C14.122 25.9114 13.6548 25.8076 12.6687 25.8076C11.6825 25.8076 11.2154 25.8595 10.7483 25.9633C10.2811 26.0152 9.8659 26.119 9.03545 26.119C8.72403 26.119 8.51642 26.3266 8.51642 26.6381C8.51642 26.9495 8.72403 27.1571 9.03545 27.1571C9.96971 27.1571 10.4887 27.1052 10.9559 27.0014C11.423 26.9495 11.8382 26.8457 12.6687 26.8457C13.4991 26.8457 13.9662 26.8976 14.3815 27.0014C14.8486 27.0533 15.3157 27.1571 16.3019 27.1571C17.2361 27.1571 17.7552 27.1052 18.2223 27.0014C18.6894 26.9495 19.1047 26.8457 19.9351 26.8457C20.8175 26.8457 21.2327 26.8976 21.6479 27.0014C22.115 27.0533 22.5822 27.1571 23.5683 27.1571C23.8797 27.1571 24.0874 26.9495 24.0874 26.6381C24.0874 26.3266 23.8797 26.119 23.5683 26.119Z" fill="#525252"/>
<path d="M19.9352 28.6103C19.52 28.6103 19.3124 28.5584 19.1047 28.5584C18.8971 28.5065 18.5857 28.4546 18.1186 28.4546C17.6514 28.4546 17.34 28.5065 17.1324 28.5584C16.9248 28.5584 16.7172 28.6103 16.302 28.6103C15.8867 28.6103 15.6791 28.5584 15.4715 28.5584C15.2639 28.5065 14.9525 28.4546 14.4854 28.4546C13.9663 28.4546 13.7068 28.5065 13.4992 28.5584C13.2916 28.5584 13.084 28.6103 12.6688 28.6103C12.3573 28.6103 12.1497 28.8179 12.1497 29.1293C12.1497 29.4407 12.3573 29.6484 12.6688 29.6484C13.1878 29.6484 13.4473 29.5965 13.6549 29.5446C13.8625 29.4927 14.0701 29.4927 14.4854 29.4927C14.9006 29.4927 15.1082 29.5446 15.3158 29.5446C15.5234 29.5965 15.8348 29.6484 16.302 29.6484C16.821 29.6484 17.0805 29.5965 17.2881 29.5446C17.4957 29.4927 17.7034 29.4927 18.1186 29.4927C18.5338 29.4927 18.7414 29.5446 18.949 29.5446C19.1566 29.5965 19.4681 29.6484 19.9352 29.6484C20.2466 29.6484 20.4542 29.4407 20.4542 29.1293C20.4542 28.8179 20.2466 28.6103 19.9352 28.6103Z" fill="#525252"/>
<path d="M16.3019 9.40621C16.6133 9.40621 16.8209 9.1986 16.8209 8.88718V5.36815C16.8209 5.05673 16.6133 4.84912 16.3019 4.84912C15.9904 4.84912 15.7828 5.05673 15.7828 5.36815V8.88718C15.7828 9.1986 15.9904 9.40621 16.3019 9.40621Z" fill="#525252"/>
<path d="M26.1634 19.268H27.7309C28.0423 19.268 28.2499 19.0604 28.2499 18.749C28.2499 18.4376 28.0423 18.23 27.7309 18.23H26.1634C25.852 18.23 25.6443 18.4376 25.6443 18.749C25.6443 19.0604 25.852 19.268 26.1634 19.268Z" fill="#525252"/>
<path d="M4.76903 19.268H6.44039C6.75181 19.268 6.95943 19.0604 6.95943 18.749C6.95943 18.4376 6.75181 18.23 6.44039 18.23H4.76903C4.45761 18.23 4.25 18.4376 4.25 18.749C4.25 19.0604 4.45761 19.268 4.76903 19.268Z" fill="#525252"/>
<path d="M23.257 12.3127C23.4127 12.3127 23.5165 12.2608 23.6203 12.157L25.2016 10.5757C25.4093 10.3681 25.4093 10.0567 25.2016 9.84907C24.994 9.64146 24.6826 9.64146 24.475 9.84907L22.8937 11.4304C22.6861 11.638 22.6861 11.9494 22.8937 12.157C22.9975 12.2608 23.1532 12.3127 23.257 12.3127Z" fill="#525252"/>
<path d="M8.76903 12.0947C8.87284 12.1985 9.02855 12.2505 9.13235 12.2505C9.23616 12.2505 9.39187 12.1985 9.49568 12.0947C9.70329 11.8871 9.70329 11.5757 9.49568 11.3681L7.9767 9.84907C7.76909 9.64146 7.45767 9.64146 7.25006 9.84907C7.04245 10.0567 7.04245 10.3681 7.25006 10.5757L8.76903 12.0947Z" fill="#525252"/>
</svg>
