<?xml version="1.0" encoding="utf-8"?>
<!-- Generator: Adobe Illustrator 23.0.1, SVG Export Plug-In . SVG Version: 6.00 Build 0)  -->
<svg version="1.1" id="Layer_1" xmlns="http://www.w3.org/2000/svg" xmlns:xlink="http://www.w3.org/1999/xlink" x="0px" y="0px"
	 viewBox="0 0 93 25" style="enable-background:new 0 0 93 25;" xml:space="preserve">
<style type="text/css">
	.st0{fill:#63B152;}
	.st1{fill:#02508B;}
	.st2{fill:#038344;}
	.st3{fill:#4EBEED;}
	.st4{fill:#E6372E;}
	.st5{fill:#223D77;}
	.st6{fill:#DAA428;}
	.st7{fill:#066986;}
	.st8{fill:#00377B;}
	.st9{fill:#DBA410;}
	.st10{fill-rule:evenodd;clip-rule:evenodd;fill:#006885;}
	.st11{clip-path:url(#SVGID_2_);}
	.st12{fill:url(#SVGID_3_);}
	.st13{fill:url(#SVGID_4_);}
	.st14{fill:url(#SVGID_5_);}
	.st15{fill:url(#SVGID_6_);}
	.st16{fill:url(#SVGID_7_);}
	.st17{fill:url(#SVGID_8_);}
	.st18{fill:url(#SVGID_9_);}
	.st19{fill:url(#SVGID_10_);}
	.st20{fill:url(#SVGID_11_);}
	.st21{fill:url(#SVGID_12_);}
	.st22{fill:url(#SVGID_13_);}
	.st23{fill:url(#SVGID_14_);}
	.st24{fill:url(#SVGID_15_);}
	.st25{fill:url(#SVGID_16_);}
	.st26{fill:url(#SVGID_17_);}
	.st27{fill:url(#SVGID_18_);}
	.st28{fill:url(#SVGID_19_);}
	.st29{fill:url(#SVGID_20_);}
	.st30{fill:#334572;}
</style>
<g>
	<defs>
		<rect id="SVGID_1_" x="1" y="3.4" width="89.2" height="18.2"/>
	</defs>
	<clipPath id="SVGID_2_">
		<use xlink:href="#SVGID_1_"  style="overflow:visible;"/>
	</clipPath>
	<g class="st11">
		
			<linearGradient id="SVGID_3_" gradientUnits="userSpaceOnUse" x1="83.0085" y1="64.6065" x2="86.6872" y2="62.7834" gradientTransform="matrix(1 0 0 -1 0 71)">
			<stop  offset="0" style="stop-color:#FAAF4D"/>
			<stop  offset="0.5944" style="stop-color:#F79D31"/>
			<stop  offset="1" style="stop-color:#F69320"/>
		</linearGradient>
		<path class="st12" d="M87.2,3.4l2.4-0.1l-4.1,7h-7c0,0,2.4-0.9,3.4-1.7c0.7-0.6,3.8-4.1,4.1-4.5C86.4,3.6,86.9,3.5,87.2,3.4z"/>
		
			<linearGradient id="SVGID_4_" gradientUnits="userSpaceOnUse" x1="86.6081" y1="51.6261" x2="81.2989" y2="61.0124" gradientTransform="matrix(1 0 0 -1 0 71)">
			<stop  offset="0" style="stop-color:#71A4D8"/>
			<stop  offset="1" style="stop-color:#1A204A"/>
		</linearGradient>
		<path class="st13" d="M79.9,13.3l-1-1.6h6.6l2.9,4.9c0,0-1.6-1.3-2.6-1.7c-0.7-0.3-4.5-1-4.9-1C80.4,13.8,80.1,13.5,79.9,13.3z"/>
		
			<linearGradient id="SVGID_5_" gradientUnits="userSpaceOnUse" x1="91.9664" y1="54.656" x2="86.6569" y2="64.0422" gradientTransform="matrix(1 0 0 -1 0 71)">
			<stop  offset="0" style="stop-color:#71A4D8"/>
			<stop  offset="1" style="stop-color:#1A204A"/>
		</linearGradient>
		<path class="st14" d="M90.2,14.5l-0.8,1.4L86.6,11L89,6.8c0,0-0.3,1.8-0.1,2.6c0.1,0.6,1.2,3.7,1.3,4
			C90.3,13.9,90.2,14.3,90.2,14.5z"/>
		
			<linearGradient id="SVGID_6_" gradientUnits="userSpaceOnUse" x1="3.9737" y1="51.5952" x2="3.9737" y2="60.2277" gradientTransform="matrix(1 0 0 -1 0 71)">
			<stop  offset="0" style="stop-color:#71A4D8"/>
			<stop  offset="1" style="stop-color:#1A204A"/>
		</linearGradient>
		<path class="st15" d="M1,16.4l1.1-6h3.2c0.7,0,1.1,0.2,1.4,0.5c0.3,0.3,0.4,0.8,0.3,1.5c-0.1,0.7-0.4,1.2-0.8,1.5
			s-0.9,0.5-1.6,0.5H2.8l-0.3,2H1z M4.5,13.2c0.5,0,0.8-0.3,0.9-0.8c0.1-0.5-0.1-0.8-0.6-0.8H3.3l-0.3,1.5L4.5,13.2L4.5,13.2z"/>
		
			<linearGradient id="SVGID_7_" gradientUnits="userSpaceOnUse" x1="9.2564" y1="51.5952" x2="9.2564" y2="60.2277" gradientTransform="matrix(1 0 0 -1 0 71)">
			<stop  offset="0" style="stop-color:#71A4D8"/>
			<stop  offset="1" style="stop-color:#1A204A"/>
		</linearGradient>
		<path class="st16" d="M10.8,16.4l-0.2-1.2H8.3l-0.6,1.2H6.1l3.4-6h1.7l1.3,6H10.8z M10,11.8L8.9,14h1.5L10,11.8z"/>
		
			<linearGradient id="SVGID_8_" gradientUnits="userSpaceOnUse" x1="15.8134" y1="51.5952" x2="15.8134" y2="60.2277" gradientTransform="matrix(1 0 0 -1 0 71)">
			<stop  offset="0" style="stop-color:#71A4D8"/>
			<stop  offset="1" style="stop-color:#1A204A"/>
		</linearGradient>
		<path class="st17" d="M15.6,16.4c-1,0-1.7-0.2-2.1-0.7c-0.4-0.5-0.5-1.2-0.3-2.3c0.2-1,0.6-1.8,1.1-2.3c0.6-0.5,1.4-0.7,2.4-0.7
			h1.9l-0.2,1.2h-1.6c-0.3,0-0.6,0-0.8,0.1c-0.2,0.1-0.4,0.2-0.6,0.3s-0.3,0.3-0.4,0.5c-0.1,0.2-0.2,0.5-0.2,0.8
			c-0.1,0.3-0.1,0.6-0.1,0.8c0,0.2,0.1,0.4,0.2,0.5c0.1,0.1,0.3,0.2,0.5,0.3c0.2,0.1,0.5,0.1,0.8,0.1h1.6l-0.2,1.2L15.6,16.4
			L15.6,16.4z"/>
		
			<linearGradient id="SVGID_9_" gradientUnits="userSpaceOnUse" x1="19.8127" y1="51.5952" x2="19.8127" y2="60.2277" gradientTransform="matrix(1 0 0 -1 0 71)">
			<stop  offset="0" style="stop-color:#71A4D8"/>
			<stop  offset="1" style="stop-color:#1A204A"/>
		</linearGradient>
		<path class="st18" d="M18.5,16.4l1.1-6h1.5l-1.1,6H18.5z"/>
		
			<linearGradient id="SVGID_10_" gradientUnits="userSpaceOnUse" x1="23.7128" y1="51.5952" x2="23.7128" y2="60.2277" gradientTransform="matrix(1 0 0 -1 0 71)">
			<stop  offset="0" style="stop-color:#71A4D8"/>
			<stop  offset="1" style="stop-color:#1A204A"/>
		</linearGradient>
		<path class="st19" d="M22.9,14.3l-0.4,2.1H21l0.6-3.7c0.3-1.6,1.2-2.3,2.7-2.3h2l-0.2,1.2h-1.6c-0.2,0-0.4,0-0.6,0.1
			c-0.2,0-0.3,0.1-0.4,0.2c-0.1,0.1-0.2,0.2-0.3,0.4c-0.1,0.2-0.1,0.4-0.2,0.6l0,0.1h2.7l-0.2,1.2L22.9,14.3L22.9,14.3z"/>
		
			<linearGradient id="SVGID_11_" gradientUnits="userSpaceOnUse" x1="27.5215" y1="51.5952" x2="27.5215" y2="60.2277" gradientTransform="matrix(1 0 0 -1 0 71)">
			<stop  offset="0" style="stop-color:#71A4D8"/>
			<stop  offset="1" style="stop-color:#1A204A"/>
		</linearGradient>
		<path class="st20" d="M26.3,16.4l1.1-6h1.5l-1.1,6H26.3z"/>
		
			<linearGradient id="SVGID_12_" gradientUnits="userSpaceOnUse" x1="31.8509" y1="51.5952" x2="31.8509" y2="60.2277" gradientTransform="matrix(1 0 0 -1 0 71)">
			<stop  offset="0" style="stop-color:#71A4D8"/>
			<stop  offset="1" style="stop-color:#1A204A"/>
		</linearGradient>
		<path class="st21" d="M31.7,16.4c-1,0-1.7-0.2-2.1-0.7c-0.4-0.5-0.5-1.2-0.3-2.3c0.2-1,0.6-1.8,1.1-2.3c0.6-0.5,1.4-0.7,2.4-0.7
			h1.9l-0.2,1.2h-1.6c-0.3,0-0.6,0-0.8,0.1c-0.2,0.1-0.4,0.2-0.6,0.3c-0.2,0.1-0.3,0.3-0.4,0.5c-0.1,0.2-0.2,0.5-0.2,0.8
			c-0.1,0.3-0.1,0.6-0.1,0.8c0,0.2,0.1,0.4,0.2,0.5c0.1,0.1,0.3,0.2,0.5,0.3c0.2,0.1,0.5,0.1,0.8,0.1h1.6l-0.2,1.2L31.7,16.4
			L31.7,16.4z"/>
		
			<linearGradient id="SVGID_13_" gradientUnits="userSpaceOnUse" x1="38.8636" y1="51.5952" x2="38.8636" y2="60.2277" gradientTransform="matrix(1 0 0 -1 0 71)">
			<stop  offset="0" style="stop-color:#71A4D8"/>
			<stop  offset="1" style="stop-color:#1A204A"/>
		</linearGradient>
		<path class="st22" d="M40.4,16.4l-0.2-1.2h-2.3l-0.6,1.2h-1.6l3.4-6h1.7l1.3,6L40.4,16.4L40.4,16.4z M39.6,11.8L38.5,14H40
			L39.6,11.8z"/>
		
			<linearGradient id="SVGID_14_" gradientUnits="userSpaceOnUse" x1="43.9862" y1="51.5952" x2="43.9862" y2="60.2277" gradientTransform="matrix(1 0 0 -1 0 71)">
			<stop  offset="0" style="stop-color:#71A4D8"/>
			<stop  offset="1" style="stop-color:#1A204A"/>
		</linearGradient>
		<path class="st23" d="M42.7,16.4l1.1-6h1.5l-1.1,6H42.7z"/>
		
			<linearGradient id="SVGID_15_" gradientUnits="userSpaceOnUse" x1="48.2423" y1="51.5952" x2="48.2423" y2="60.2277" gradientTransform="matrix(1 0 0 -1 0 71)">
			<stop  offset="0" style="stop-color:#71A4D8"/>
			<stop  offset="1" style="stop-color:#1A204A"/>
		</linearGradient>
		<path class="st24" d="M49.1,16.4l-1-2.1h-1l-0.4,2.1h-1.5l1.1-6h3.2c0.7,0,1.2,0.2,1.4,0.5c0.3,0.3,0.4,0.8,0.3,1.5
			c-0.1,0.3-0.2,0.6-0.3,0.8c-0.1,0.2-0.3,0.4-0.4,0.5c-0.1,0.1-0.3,0.2-0.4,0.3c-0.1,0.1-0.3,0.1-0.4,0.2l1.1,2.2H49.1z M47.5,11.7
			l-0.2,1.4h1.5c0.3,0,0.5-0.1,0.6-0.2c0.1-0.1,0.2-0.3,0.3-0.5c0.1-0.3,0-0.4-0.1-0.5c-0.1-0.1-0.3-0.2-0.5-0.2H47.5z"/>
		
			<linearGradient id="SVGID_16_" gradientUnits="userSpaceOnUse" x1="54.0151" y1="51.5952" x2="54.0151" y2="60.2277" gradientTransform="matrix(1 0 0 -1 0 71)">
			<stop  offset="0" style="stop-color:#71A4D8"/>
			<stop  offset="1" style="stop-color:#1A204A"/>
		</linearGradient>
		<path class="st25" d="M53.9,16.4c-1.6,0-2.2-0.8-1.9-2.3l0.7-3.6h1.5l-0.6,3.4c0,0.2-0.1,0.5,0,0.6c0,0.2,0.1,0.3,0.2,0.4
			c0.1,0.1,0.2,0.2,0.4,0.2c0.2,0,0.4,0.1,0.6,0.1h1.6l-0.2,1.2L53.9,16.4L53.9,16.4z"/>
		
			<linearGradient id="SVGID_17_" gradientUnits="userSpaceOnUse" x1="57.9881" y1="51.5952" x2="57.9881" y2="60.2277" gradientTransform="matrix(1 0 0 -1 0 71)">
			<stop  offset="0" style="stop-color:#71A4D8"/>
			<stop  offset="1" style="stop-color:#1A204A"/>
		</linearGradient>
		<path class="st26" d="M56.7,16.4l1.1-6h1.5l-1.1,6H56.7z"/>
		
			<linearGradient id="SVGID_18_" gradientUnits="userSpaceOnUse" x1="62.4524" y1="51.5952" x2="62.4524" y2="60.2277" gradientTransform="matrix(1 0 0 -1 0 71)">
			<stop  offset="0" style="stop-color:#71A4D8"/>
			<stop  offset="1" style="stop-color:#1A204A"/>
		</linearGradient>
		<path class="st27" d="M62.8,16.4l-1.4-4.1l-0.7,4.1h-1.4l1.1-6h1.9l1.4,4.1l0.7-4.1h1.4l-1,6H62.8z"/>
		
			<linearGradient id="SVGID_19_" gradientUnits="userSpaceOnUse" x1="68.7217" y1="51.5952" x2="68.7217" y2="60.2277" gradientTransform="matrix(1 0 0 -1 0 71)">
			<stop  offset="0" style="stop-color:#71A4D8"/>
			<stop  offset="1" style="stop-color:#1A204A"/>
		</linearGradient>
		<path class="st28" d="M68.5,16.4c-1,0-1.7-0.2-2.1-0.7c-0.4-0.5-0.5-1.2-0.3-2.3c0.2-1,0.6-1.8,1.1-2.3c0.6-0.5,1.4-0.7,2.4-0.7
			h1.9l-0.2,1.2h-1.6c-0.3,0-0.5,0-0.7,0.1c-0.2,0-0.4,0.1-0.5,0.2c-0.2,0.1-0.3,0.2-0.4,0.3c-0.1,0.1-0.2,0.3-0.3,0.5h3.2L70.7,14
			h-3.2c0,0.4,0.1,0.7,0.3,0.9c0.2,0.2,0.6,0.3,1.2,0.3h1.6l-0.2,1.2L68.5,16.4L68.5,16.4z"/>
		
			<linearGradient id="SVGID_20_" gradientUnits="userSpaceOnUse" x1="74.3446" y1="51.5952" x2="74.3446" y2="60.2277" gradientTransform="matrix(1 0 0 -1 0 71)">
			<stop  offset="0" style="stop-color:#71A4D8"/>
			<stop  offset="1" style="stop-color:#1A204A"/>
		</linearGradient>
		<path class="st29" d="M71.5,16.4l0.2-1.2h2.8c0.4,0,0.6-0.2,0.7-0.6c0.1-0.4-0.1-0.6-0.5-0.6h-1.1c-1.2,0-1.7-0.6-1.5-1.8
			c0.2-1.2,0.9-1.8,2.1-1.8h3L77,11.7h-2.7c-0.4,0-0.6,0.2-0.7,0.6c-0.1,0.4,0.1,0.6,0.5,0.6h1.1c0.6,0,1,0.2,1.3,0.5
			c0.3,0.3,0.3,0.8,0.2,1.4c-0.1,0.6-0.3,1.1-0.7,1.4c-0.4,0.3-0.8,0.5-1.4,0.5L71.5,16.4L71.5,16.4z"/>
		<path class="st30" d="M16.2,20.8l0.2-0.6h1l0.2,0.6h0.5l-0.9-2.5h-0.6l-0.9,2.5H16.2z M16.6,19.8l0.3-1h0l0.3,1H16.6z"/>
		<path class="st30" d="M19.3,18.3v2.5h0.4v-1.7h0l0.7,1.7h0.3l0.7-1.7h0v1.7H22v-2.5h-0.6l-0.8,1.8h0l-0.8-1.8H19.3z"/>
		<path class="st30" d="M23.3,20.9c0.4,0,0.7-0.2,0.8-0.5l-0.4,0c-0.1,0.2-0.2,0.2-0.4,0.2c-0.3,0-0.5-0.2-0.5-0.5h1.3v-0.1
			c0-0.7-0.4-1-0.9-1c-0.5,0-0.9,0.4-0.9,1C22.4,20.5,22.7,20.9,23.3,20.9z M22.8,19.7c0-0.2,0.2-0.4,0.5-0.4c0.3,0,0.4,0.2,0.4,0.4
			H22.8z"/>
		<path class="st30" d="M24.5,20.8H25v-1.2c0-0.2,0.2-0.4,0.3-0.4c0.2,0,0.3,0.1,0.3,0.3v1.2h0.4v-1.2c0-0.2,0.1-0.4,0.3-0.4
			c0.2,0,0.3,0.1,0.3,0.3v1.2h0.5v-1.3c0-0.4-0.2-0.7-0.6-0.7c-0.3,0-0.5,0.1-0.6,0.3h0c-0.1-0.2-0.3-0.3-0.5-0.3
			c-0.3,0-0.4,0.1-0.5,0.3h0v-0.3h-0.4V20.8z"/>
		<path class="st30" d="M27.7,20.8h0.4v-0.3h0c0.1,0.1,0.2,0.3,0.5,0.3c0.4,0,0.8-0.4,0.8-1c0-0.6-0.3-1-0.8-1
			c-0.3,0-0.5,0.2-0.5,0.3h0v-0.9h-0.4V20.8z M28.1,19.9c0-0.4,0.2-0.6,0.4-0.6c0.3,0,0.5,0.3,0.5,0.6c0,0.4-0.2,0.6-0.5,0.6
			C28.3,20.5,28.1,20.2,28.1,19.9z"/>
		<path class="st30" d="M30.7,20.9c0.4,0,0.7-0.2,0.8-0.5l-0.4,0c-0.1,0.2-0.2,0.2-0.4,0.2c-0.3,0-0.5-0.2-0.5-0.5h1.3v-0.1
			c0-0.7-0.4-1-0.9-1c-0.5,0-0.9,0.4-0.9,1C29.8,20.5,30.1,20.9,30.7,20.9z M30.2,19.7c0-0.2,0.2-0.4,0.5-0.4c0.3,0,0.4,0.2,0.4,0.4
			H30.2z"/>
		<path class="st30" d="M31.9,20.8h0.4v-1.1c0-0.2,0.2-0.4,0.4-0.4c0.1,0,0.2,0,0.2,0v-0.4c0,0-0.1,0-0.2,0c-0.2,0-0.4,0.1-0.5,0.3
			h0v-0.3h-0.4V20.8z"/>
		<path class="st30" d="M35,20.9c0.6,0,0.9-0.4,0.9-1c0-0.6-0.4-1-0.9-1c-0.6,0-0.9,0.4-0.9,1C34.1,20.5,34.4,20.9,35,20.9z
			 M35,20.5c-0.3,0-0.5-0.3-0.5-0.6s0.2-0.6,0.5-0.6c0.3,0,0.5,0.3,0.5,0.6S35.3,20.5,35,20.5z"/>
		<path class="st30" d="M37.3,18.9h-0.4v-0.2c0-0.1,0.1-0.2,0.2-0.2c0.1,0,0.1,0,0.2,0l0.1-0.3c-0.1,0-0.2-0.1-0.3-0.1
			c-0.3,0-0.6,0.2-0.6,0.6v0.2h-0.3v0.3h0.3v1.6h0.4v-1.6h0.4V18.9z"/>
		<path class="st30" d="M38.8,18.3h-0.5l0.9,2.5h0.6l0.9-2.5h-0.5l-0.7,2h0L38.8,18.3z"/>
		<path class="st30" d="M41,20.8h0.4v-1.9H41V20.8z M41.2,18.6c0.1,0,0.3-0.1,0.3-0.2c0-0.1-0.1-0.2-0.3-0.2c-0.1,0-0.3,0.1-0.3,0.2
			C41,18.5,41.1,18.6,41.2,18.6z"/>
		<path class="st30" d="M42.8,20.9c0.4,0,0.7-0.2,0.8-0.5l-0.4,0c-0.1,0.2-0.2,0.2-0.4,0.2c-0.3,0-0.5-0.2-0.5-0.5h1.3v-0.1
			c0-0.7-0.4-1-0.9-1c-0.5,0-0.9,0.4-0.9,1C41.8,20.5,42.2,20.9,42.8,20.9z M42.3,19.7c0-0.2,0.2-0.4,0.5-0.4c0.3,0,0.4,0.2,0.4,0.4
			H42.3z"/>
		<path class="st30" d="M44.9,18.9h-0.4v-0.5h-0.4v0.5h-0.3v0.3h0.3v1.1c0,0.4,0.3,0.5,0.6,0.5c0.1,0,0.2,0,0.3,0l-0.1-0.4
			c0,0-0.1,0-0.1,0c-0.1,0-0.2,0-0.2-0.2v-1h0.4V18.9z"/>
		<path class="st30" d="M45.8,19.7c0-0.3,0.2-0.4,0.4-0.4c0.2,0,0.4,0.2,0.4,0.4v1.1H47v-1.2c0-0.5-0.3-0.7-0.7-0.7
			c-0.3,0-0.5,0.1-0.6,0.3h0v-0.3h-0.4v1.9h0.4V19.7z"/>
		<path class="st30" d="M48,20.9c0.3,0,0.5-0.1,0.6-0.3h0v0.3H49v-1.3c0-0.5-0.4-0.7-0.8-0.7c-0.4,0-0.7,0.2-0.8,0.5l0.4,0.1
			c0-0.1,0.2-0.2,0.4-0.2c0.2,0,0.3,0.1,0.3,0.3v0c0,0.1-0.1,0.1-0.5,0.2c-0.4,0-0.7,0.2-0.7,0.6C47.4,20.7,47.6,20.9,48,20.9z
			 M48.1,20.5c-0.2,0-0.3-0.1-0.3-0.3c0-0.2,0.1-0.2,0.4-0.3c0.1,0,0.4,0,0.4-0.1v0.2C48.5,20.3,48.4,20.5,48.1,20.5z"/>
		<path class="st30" d="M49.4,20.8h0.4v-1.2c0-0.2,0.2-0.4,0.3-0.4c0.2,0,0.3,0.1,0.3,0.3v1.2H51v-1.2c0-0.2,0.1-0.4,0.3-0.4
			c0.2,0,0.3,0.1,0.3,0.3v1.2h0.5v-1.3c0-0.4-0.2-0.7-0.6-0.7c-0.3,0-0.5,0.1-0.6,0.3h0c-0.1-0.2-0.3-0.3-0.5-0.3
			c-0.3,0-0.4,0.1-0.5,0.3h0v-0.3h-0.4V20.8z"/>
		<path class="st30" d="M53.8,20.8l0.2-0.6h1l0.2,0.6h0.5l-0.9-2.5h-0.6l-0.9,2.5H53.8z M54.1,19.8l0.3-1h0l0.3,1H54.1z"/>
		<path class="st30" d="M56,20.8h0.4v-1.9H56V20.8z M56.2,18.6c0.1,0,0.3-0.1,0.3-0.2c0-0.1-0.1-0.2-0.3-0.2c-0.1,0-0.3,0.1-0.3,0.2
			C56,18.5,56.1,18.6,56.2,18.6z"/>
		<path class="st30" d="M56.9,20.8h0.4v-1.1c0-0.2,0.2-0.4,0.4-0.4c0.1,0,0.2,0,0.2,0v-0.4c0,0-0.1,0-0.2,0c-0.2,0-0.4,0.1-0.5,0.3
			h0v-0.3h-0.4V20.8z"/>
		<path class="st30" d="M58.7,18.3h-0.4v2.5h0.4V18.3z"/>
		<path class="st30" d="M59.2,20.8h0.4v-1.9h-0.4V20.8z M59.4,18.6c0.1,0,0.3-0.1,0.3-0.2c0-0.1-0.1-0.2-0.3-0.2
			c-0.1,0-0.3,0.1-0.3,0.2C59.2,18.5,59.3,18.6,59.4,18.6z"/>
		<path class="st30" d="M60.6,19.7c0-0.3,0.2-0.4,0.4-0.4c0.2,0,0.4,0.2,0.4,0.4v1.1h0.4v-1.2c0-0.5-0.3-0.7-0.7-0.7
			c-0.3,0-0.5,0.1-0.6,0.3h0v-0.3h-0.4v1.9h0.4V19.7z"/>
		<path class="st30" d="M63.1,20.9c0.4,0,0.7-0.2,0.8-0.5l-0.4,0c-0.1,0.2-0.2,0.2-0.4,0.2c-0.3,0-0.5-0.2-0.5-0.5h1.3v-0.1
			c0-0.7-0.4-1-0.9-1c-0.5,0-0.9,0.4-0.9,1C62.2,20.5,62.5,20.9,63.1,20.9z M62.6,19.7c0-0.2,0.2-0.4,0.5-0.4c0.3,0,0.4,0.2,0.4,0.4
			H62.6z"/>
		<path class="st30" d="M65.8,19.4c-0.1-0.3-0.3-0.5-0.8-0.5c-0.5,0-0.8,0.2-0.8,0.6c0,0.3,0.2,0.5,0.5,0.5l0.3,0.1
			c0.2,0,0.3,0.1,0.3,0.2c0,0.1-0.1,0.2-0.4,0.2c-0.2,0-0.3-0.1-0.4-0.3l-0.4,0c0.1,0.3,0.3,0.6,0.8,0.6c0.5,0,0.8-0.2,0.8-0.6
			c0-0.3-0.2-0.4-0.5-0.5L65,19.7c-0.2,0-0.3-0.1-0.3-0.2c0-0.1,0.1-0.2,0.3-0.2c0.2,0,0.3,0.1,0.4,0.2L65.8,19.4z"/>
		<path class="st30" d="M68.8,19.1h0.5c-0.1-0.5-0.5-0.8-1.1-0.8c-0.7,0-1.2,0.5-1.2,1.3c0,0.8,0.5,1.3,1.2,1.3
			c0.6,0,1.1-0.4,1.1-1.1v-0.3h-1v0.4h0.6c0,0.4-0.2,0.6-0.6,0.6c-0.4,0-0.7-0.3-0.7-0.9c0-0.6,0.3-0.9,0.7-0.9
			C68.5,18.7,68.7,18.8,68.8,19.1z"/>
		<path class="st30" d="M69.7,20.8h0.4v-1.1c0-0.2,0.2-0.4,0.4-0.4c0.1,0,0.2,0,0.2,0v-0.4c0,0-0.1,0-0.2,0c-0.2,0-0.4,0.1-0.5,0.3
			h0v-0.3h-0.4V20.8z"/>
		<path class="st30" d="M71.9,20.9c0.6,0,0.9-0.4,0.9-1c0-0.6-0.4-1-0.9-1c-0.6,0-0.9,0.4-0.9,1C70.9,20.5,71.3,20.9,71.9,20.9z
			 M71.9,20.5c-0.3,0-0.5-0.3-0.5-0.6s0.2-0.6,0.5-0.6c0.3,0,0.5,0.3,0.5,0.6S72.2,20.5,71.9,20.5z"/>
		<path class="st30" d="M74.4,20c0,0.3-0.2,0.4-0.4,0.4c-0.2,0-0.4-0.2-0.4-0.4v-1.1h-0.4v1.2c0,0.5,0.3,0.7,0.6,0.7
			c0.3,0,0.5-0.2,0.6-0.4h0v0.3h0.4v-1.9h-0.4V20z"/>
		<path class="st30" d="M75.3,21.5h0.4v-1h0c0.1,0.1,0.2,0.3,0.5,0.3c0.4,0,0.8-0.4,0.8-1c0-0.6-0.3-1-0.8-1c-0.3,0-0.5,0.2-0.5,0.3
			h0v-0.3h-0.4V21.5z M75.7,19.9c0-0.4,0.2-0.6,0.4-0.6c0.3,0,0.5,0.3,0.5,0.6c0,0.4-0.2,0.6-0.5,0.6C75.9,20.5,75.7,20.2,75.7,19.9
			z"/>
	</g>
</g>
</svg>
