<?xml version="1.0" encoding="utf-8"?>
<!-- Generator: Adobe Illustrator 23.0.1, SVG Export Plug-In . SVG Version: 6.00 Build 0)  -->
<svg version="1.1" id="Layer_1" xmlns="http://www.w3.org/2000/svg" xmlns:xlink="http://www.w3.org/1999/xlink" x="0px" y="0px"
	 viewBox="0 0 93 25" style="enable-background:new 0 0 93 25;" xml:space="preserve">
<style type="text/css">
	.st0{fill:#63B152;}
	.st1{fill:#02508B;}
	.st2{fill:#038344;}
	.st3{fill:#4EBEED;}
	.st4{fill:#E6372E;}
	.st5{fill:#223D77;}
	.st6{fill:#DAA428;}
	.st7{fill:#066986;}
	.st8{fill:#00377B;}
	.st9{fill:#DBA410;}
	.st10{fill-rule:evenodd;clip-rule:evenodd;fill:#006885;}
	.st11{clip-path:url(#SVGID_2_);}
	.st12{fill:url(#SVGID_3_);}
	.st13{fill:url(#SVGID_4_);}
	.st14{fill:url(#SVGID_5_);}
	.st15{fill:url(#SVGID_6_);}
	.st16{fill:url(#SVGID_7_);}
	.st17{fill:url(#SVGID_8_);}
	.st18{fill:url(#SVGID_9_);}
	.st19{fill:url(#SVGID_10_);}
	.st20{fill:url(#SVGID_11_);}
	.st21{fill:url(#SVGID_12_);}
	.st22{fill:url(#SVGID_13_);}
	.st23{fill:url(#SVGID_14_);}
	.st24{fill:url(#SVGID_15_);}
	.st25{fill:url(#SVGID_16_);}
	.st26{fill:url(#SVGID_17_);}
	.st27{fill:url(#SVGID_18_);}
	.st28{fill:url(#SVGID_19_);}
	.st29{fill:url(#SVGID_20_);}
	.st30{fill:#334572;}
</style>
<g>
	<path class="st4" d="M2,6.9h2.8l0.5,8.3l4-8.3h3L5.9,19H3.3L2,6.9z M12.8,6.9h2.8l-2,9.5h-2.8C10.7,16.4,12.8,6.9,12.8,6.9z
		 M23.9,12.5h-5.8c-0.1,0.3-0.2,2.1,2,2.1c1.5,0,1.9-0.2,2.6-0.5l0.3,1.6c-0.9,0.5-1.8,0.6-2.8,0.7c-2.9,0-4.7-0.8-4.7-3.9
		c0.1-4.9,4.4-5.9,5.5-5.9C26.3,6.8,23.9,12.5,23.9,12.5z M21.7,10.8c0.1-0.3,0.8-2.5-0.9-2.5c-1,0-1.7,0.5-2.1,1.4
		c-0.2,0.5-0.3,0.8-0.4,1.1C18.2,10.8,21.7,10.8,21.7,10.8z M43,12.5h-5.8c-0.1,0.3-0.2,2.1,2,2.1c1.5,0,1.9-0.2,2.6-0.5l0.3,1.6
		c-0.9,0.5-1.8,0.6-2.8,0.7c-2.9,0-4.7-0.8-4.7-3.9c0.1-4.9,4.4-5.9,5.5-5.9C45.4,6.8,43,12.5,43,12.5z M40.8,10.8
		c0.1-0.3,0.8-2.5-0.9-2.5c-1,0-1.7,0.5-2.1,1.4c-0.2,0.5-0.3,0.8-0.4,1.1H40.8z M26.6,5.5c0,0,0.3-0.5,1.3-0.7c1-0.2,1.8,0,1.8,0
		l-0.5,2.2h1.5l-0.3,1.7l-1.6,0l-1,4.9c0,0.2-0.3,1.5,1.5,1.1c0,0-0.8,2.2-3,1.8c-0.7-0.1-1.7-0.9-1.5-2.2
		C24.7,14.2,26.6,5.5,26.6,5.5z M45.8,5.5c0,0,0.3-0.5,1.3-0.7c1-0.2,1.8,0,1.8,0l-0.5,2.2h1.5l-0.3,1.7l-1.6,0l-1,4.9
		c0,0.2-0.3,1.5,1.5,1.1c0,0-0.8,2.2-3,1.8c-0.7-0.1-1.7-0.9-1.5-2.2L45.8,5.5L45.8,5.5z"/>
	<path class="st4" d="M31.9,6.9h2.7L32.8,16c-0.6,2.7-3.3,5.3-6.9,4.2c-1.3-0.4-2.1-1.6-1.9-2.8c0,0,1.1,0.9,2.7,1
		c2.2,0.1,3.2-2,3.3-2.7C30,15.6,31.9,6.9,31.9,6.9z M61.9,4.8h2.8l-2,9.5h-2.8C59.9,14.3,61.9,4.8,61.9,4.8z M56.7,14.3h-3.8
		L51.1,17h-2.8L56,4.8h3L59.5,17h-2.8L56.7,14.3L56.7,14.3z M56.7,12.6v-5l-2.9,5H56.7z M70.5,6.5c-0.5-0.1-1.5-0.2-1.9,0l-1.7,7.8
		H64L66,5.4c1.6-0.9,3.7-0.9,5.1-0.7L70.5,6.5z"/>
</g>
</svg>
