<?xml version="1.0" encoding="utf-8"?>
<!-- Generator: Adobe Illustrator 23.0.1, SVG Export Plug-In . SVG Version: 6.00 Build 0)  -->
<svg version="1.1" id="Layer_1" xmlns="http://www.w3.org/2000/svg" xmlns:xlink="http://www.w3.org/1999/xlink" x="0px" y="0px"
	 viewBox="0 0 93 25" style="enable-background:new 0 0 93 25;" xml:space="preserve">
<style type="text/css">
	.st0{fill:#63B152;}
	.st1{fill:#02508B;}
	.st2{fill:#038344;}
	.st3{fill:#4EBEED;}
	.st4{fill:#E6372E;}
	.st5{fill:#223D77;}
	.st6{fill:#DAA428;}
	.st7{fill:#066986;}
	.st8{fill:#00377B;}
	.st9{fill:#DBA410;}
	.st10{fill-rule:evenodd;clip-rule:evenodd;fill:#006885;}
	.st11{clip-path:url(#SVGID_2_);}
	.st12{fill:url(#SVGID_3_);}
	.st13{fill:url(#SVGID_4_);}
	.st14{fill:url(#SVGID_5_);}
	.st15{fill:url(#SVGID_6_);}
	.st16{fill:url(#SVGID_7_);}
	.st17{fill:url(#SVGID_8_);}
	.st18{fill:url(#SVGID_9_);}
	.st19{fill:url(#SVGID_10_);}
	.st20{fill:url(#SVGID_11_);}
	.st21{fill:url(#SVGID_12_);}
	.st22{fill:url(#SVGID_13_);}
	.st23{fill:url(#SVGID_14_);}
	.st24{fill:url(#SVGID_15_);}
	.st25{fill:url(#SVGID_16_);}
	.st26{fill:url(#SVGID_17_);}
	.st27{fill:url(#SVGID_18_);}
	.st28{fill:url(#SVGID_19_);}
	.st29{fill:url(#SVGID_20_);}
	.st30{fill:#334572;}
</style>
<g>
	<g>
		<g>
			<g>
				<path class="st8" d="M64.2,17.6L64.2,17.6c0.6,0.6,1,1.4,1.1,2.4c0.1,2.1-1.4,3.8-3.5,4c-1,0.1-1.9-0.2-2.6-0.8l0,0
					c0.7,0.7,1.7,1.1,2.8,1c2.1-0.1,3.6-1.9,3.5-4C65.4,19.2,64.9,18.2,64.2,17.6L64.2,17.6z"/>
				<path class="st8" d="M57.6,21.9c-0.1,0.1-0.1,0.2-0.1,0.3c0.1,0.1,0.1,0.2,0.2,0.2c0.1,0,0.1-0.1,0.1-0.3l0-0.1
					c0-0.2,0-0.2,0-0.3c0-0.1,0.1-0.1,0.1-0.2c0.2-0.1,0.3,0,0.4,0.3c0.1,0.3,0,0.4-0.2,0.5l0-0.1c0.1-0.1,0.2-0.2,0.1-0.4
					c-0.1-0.2-0.2-0.2-0.3-0.2c-0.1,0-0.1,0.1-0.1,0.3l0,0.1l0,0.1c0,0.1,0,0.2,0,0.2c0,0.1-0.1,0.1-0.1,0.1c-0.2,0.1-0.3,0-0.4-0.2
					c-0.1-0.2,0-0.4,0.1-0.5L57.6,21.9L57.6,21.9z"/>
				<polygon class="st8" points="57.5,20.5 58,20 58,20.2 57.5,20.6 57.7,20.8 58,20.8 58,20.9 57.1,20.9 57.1,20.8 57.5,20.8 
					57.6,20.8 57.5,20.8 57.5,20.7 57.1,20.3 57.1,20.1 57.5,20.5 				"/>
				<path class="st8" d="M57.9,19l0.4,0.1l0,0.1l-0.4-0.1l-0.7,0.2l0.1-0.2l0.4-0.1l0,0c0,0,0,0,0.1,0c0,0,0,0-0.1-0.1l-0.3-0.3
					l0.1-0.2L57.9,19L57.9,19z"/>
				<polygon class="st8" points="58.5,17.3 58.3,17.5 58.9,18 58.8,18.2 58.2,17.7 58,17.9 57.8,17.8 58.4,17.1 58.5,17.3 				"/>
				<polygon class="st8" points="59.8,16.3 59.3,16.6 59.4,16.8 59.9,16.5 60,16.7 59.5,17 59.6,17.2 60.1,16.9 60.2,17 59.5,17.4 
					59.1,16.6 59.7,16.2 59.8,16.3 				"/>
				<path class="st8" d="M61.1,16.2c-0.1-0.1-0.1-0.1-0.1-0.2c0,0.1,0,0.1,0,0.2l0,0.2l0.3,0L61.1,16.2L61.1,16.2z M61.7,16.7
					l-0.3,0l-0.1-0.2l-0.4,0.1l-0.1,0.2l-0.2,0.1l0.3-1.1l0.2,0L61.7,16.7L61.7,16.7z"/>
				<path class="st8" d="M63.2,17L63,17l0.1-0.3c0,0,0-0.1,0-0.1c0-0.1,0-0.1,0-0.1c0,0,0-0.1,0-0.1l0-0.1c-0.1,0.1-0.1,0.1-0.1,0.2
					c0,0,0,0.1-0.1,0.1l-0.3,0.4l-0.2,0l-0.1-0.5c0,0,0-0.1,0-0.1c0-0.1,0-0.1,0-0.1c0,0,0-0.1,0-0.1l0,0.1c0,0.1,0,0.2-0.1,0.3
					l-0.1,0.3l-0.2,0l0.2-0.9l0.3,0.1l0,0.4c0,0.1,0,0.2,0,0.3c0-0.1,0-0.1,0.1-0.2c0,0,0.1-0.1,0.1-0.1l0.3-0.4l0.3,0.1L63.2,17
					L63.2,17z"/>
				<path class="st8" d="M63.2,20.1c0.3-0.2,0.5-0.3,0.7-0.3c0.1,0,0.2,0,0.2,0.1c0,0.1-0.1,0.2-0.3,0.3c-0.2,0.1-0.4,0.1-0.7,0
					C63.1,20.2,63.2,20.2,63.2,20.1L63.2,20.1z M59.3,20.5c-0.2,0-0.3-0.1-0.3-0.2c0,0,0-0.4,1-0.5c0.1,0,0.2,0,0.4,0
					c0,0-0.1,0.1-0.1,0.1l-0.1,0.1C60,20.1,59.7,20.5,59.3,20.5L59.3,20.5z M61.4,18.9c-0.1,0.1-0.3,0.3-0.6,0.5l-0.3,0.2
					c-0.2,0-0.4-0.1-0.6-0.1c-0.5,0-0.9,0.1-1.1,0.3c-0.1,0.1-0.1,0.2-0.1,0.2c0,0.2,0.3,0.3,0.3,0.4c0.4,0.2,0.8,0.1,1.1-0.1
					c0.2-0.1,0.4-0.4,0.6-0.6c0.1,0,0.3,0.1,0.5,0.1l0.2,0c-0.2,0.2-0.4,0.4-0.6,0.6l0,0c-0.3,0.3-0.5,0.4-0.8,0.5
					c-0.2,0-0.4,0-0.4,0c0,0,0,0,0,0c0.2,0.1,0.3,0.2,0.6,0.2c0.3,0,0.6-0.2,0.9-0.5l0.4-0.4l0.3-0.3c0,0,0.6,0.2,0.6,0.2
					c0,0,0,0,0,0c0,0-0.4,0.4-0.4,0.4L61.8,21c-0.3,0.3-0.5,0.5-0.7,0.6c-0.3,0.2-0.6,0.3-0.8,0.4c-0.1,0-0.3,0-0.5-0.1c0,0,0,0,0,0
					c0.2,0.1,0.4,0.3,0.7,0.3c0.4,0,0.7-0.2,1.3-0.7c0.2-0.2,0.5-0.5,0.7-0.7l0.4-0.4c0.3,0.1,0.5,0.1,0.8,0.1
					c0.4,0,0.7-0.2,0.7-0.4c0-0.2-0.1-0.2-0.2-0.3c-0.1,0-0.2-0.1-0.5-0.1c-0.3,0-0.6,0.1-0.9,0.4l-0.2,0.2c0,0-0.1,0-0.1,0L62,20.1
					c0.2-0.2,0.3-0.3,0.4-0.4c0.3-0.3,0.6-0.4,0.8-0.4c0.1,0,0.4,0,0.5,0.1c0,0,0,0,0,0c-0.3-0.2-0.5-0.3-0.7-0.3
					c-0.2,0-0.5,0.1-0.9,0.4c-0.2,0.1-0.4,0.3-0.6,0.5c0,0-0.3-0.1-0.3-0.1l-0.1,0L61,19.8c0,0,0.2-0.2,0.2-0.2
					c0.2-0.2,0.4-0.4,0.5-0.5c0.5-0.4,0.9-0.5,1.1-0.5c0.3,0,0.5,0.1,0.6,0.2c0,0,0,0,0,0c-0.3-0.3-0.5-0.4-0.9-0.4
					C62.2,18.4,61.8,18.6,61.4,18.9L61.4,18.9z"/>
				<path class="st8" d="M63.8,16.3C63.8,16.3,63.8,16.3,63.8,16.3C63.8,16.3,63.8,16.3,63.8,16.3L63.8,16.3L63.8,16.3L63.8,16.3
					L63.8,16.3z M63.8,16.4L63.8,16.4l0-0.1l0,0L63.8,16.4l-0.1-0.1l0.1-0.2l0.1,0c0,0,0.1,0,0,0.1C63.8,16.4,63.8,16.4,63.8,16.4
					L63.8,16.4L63.8,16.4z M63.9,16.4c0-0.1,0-0.1-0.1-0.2c-0.1,0-0.1,0-0.2,0.1c0,0.1,0,0.1,0.1,0.2C63.8,16.5,63.9,16.5,63.9,16.4
					L63.9,16.4z M63.6,16.3c0-0.1,0.1-0.1,0.2-0.1c0.1,0,0.1,0.1,0.1,0.2c0,0.1-0.1,0.1-0.2,0.1C63.6,16.4,63.6,16.3,63.6,16.3
					L63.6,16.3z"/>
			</g>
		</g>
		<g>
			<path class="st9" d="M28.2,12.8c0.2,0.1,1.6,1.3,4.3,1.3c2.3,0,4.8-1.2,5.5-1.2c0.3,0,0.5,0,0.7,0.1c0.3,0.1,0.6-0.1,0.5-0.4
				c-0.6-1.1-1.6-1.8-2.6-2.1c-0.7-0.2-1.4-0.3-1.7,0.1c-0.7,0.8-2.1,1.8-3.4,2c-0.1,0-0.6,0.1-0.6-0.1c0-0.1,0.2-0.1,0.3-0.1
				c1.3-0.1,3.7-1.5,5-4.3c0.5-1,0.9-2,1.7-2.5c0.2-0.1,0.2-0.4-0.2-0.5c-0.3-0.1-2-0.2-4.1,0.8c-0.9,0.5-1.1,0.9-1.1,1.3
				c0,2.9-1.5,4-2,4.4c-0.3,0.2-0.6,0.3-0.6,0.2c0-0.1,0.1-0.1,0.1-0.2c1.7-1.1,2.2-2.7,2.2-4.4c0-1.6-0.6-3.1-1-4.2
				c-0.1-0.2-0.3-0.9-0.1-1.5c0.1-0.5,0-0.6-0.2-0.6c-0.3,0-0.6,0.4-0.8,0.6c-0.1,0.1-0.4,0.5-0.9,1.5c-1,1.9-1,3.9-1,4.1
				c0,1.4,0.4,1.5,0.9,1.8c0.6,0.3,0.8,0.6,0.8,1.1c0,0.4-0.3,0.9-0.8,1c-0.4,0.1-0.7,0.1-0.7,0c0-0.1,0.2-0.1,0.3-0.1
				c0.6-0.2,1-0.5,1-0.9c0-0.6-0.7-1-1.6-1c-1,0-1.6,0.4-1.6,1c0,0.4,0.4,0.7,1,0.9c0.1,0,0.2,0,0.3,0.1c0,0.1-0.2,0.2-0.7,0
				c-0.5-0.2-0.8-0.6-0.8-1c0-0.4,0.3-0.8,0.8-1.1c0.6-0.3,0.9-0.4,0.9-1.8c0-0.2,0-2.2-1-4.1c-0.5-1-0.8-1.4-0.9-1.5
				c-0.1-0.2-0.5-0.6-0.8-0.6c-0.3,0-0.4,0.1-0.2,0.6c0.2,0.6,0,1.3-0.1,1.5c-0.4,1.2-1,2.6-1,4.2c0,1.7,0.5,3.3,2.2,4.4
				c0.1,0,0.2,0.1,0.1,0.2c0,0.1-0.3,0-0.6-0.2c-0.6-0.3-2-1.5-2-4.4c0-0.4-0.1-0.8-1.1-1.3c-2-1.1-3.8-0.9-4.1-0.8
				c-0.4,0.1-0.4,0.4-0.2,0.5C19.3,6,19.7,7,20.2,8c1.3,2.7,3.7,4.2,5,4.3c0.2,0,0.3,0.1,0.3,0.1c0,0.1-0.5,0.1-0.6,0.1
				c-1.3-0.1-2.6-1.1-3.4-2c-0.3-0.4-1-0.3-1.7-0.1c-1,0.3-2,1-2.6,2.1c-0.2,0.3,0.1,0.5,0.5,0.4c0.2-0.1,0.4-0.1,0.7-0.1
				c0.8,0,3.2,1.2,5.5,1.2C26.7,14.1,28.1,12.9,28.2,12.8z"/>
			<path class="st10" d="M38.1,18.8c0-0.3,0.3-0.5,0.7-0.5c0.6,0,0.5,0.5,1,0.5c0.2,0,0.3-0.1,0.3-0.3c0-0.3-0.4-0.5-1.1-0.6
				c-0.7,0-1,0.1-1.2,0.2c-0.3,0.1-0.4,0.3-0.4,0.5v3.2c0,0.2,0.1,0.2,0.4,0.2c0.3,0,0.4,0,0.4-0.2V18.8z M18.4,19.4
				c0-1.2-1.1-1.4-1.8-1.4c-0.6,0-1.2,0.2-1.5,0.3c-0.3,0.1-0.3,0.3-0.3,0.5l0,3.1c0,0.2,0.1,0.2,0.4,0.2c0.3,0,0.4,0,0.4-0.2l0-2.9
				c0-0.3,0.1-0.6,1-0.6c0.8,0,1,0.5,1,1l0,2.5c0,0.2,0.1,0.2,0.4,0.2c0.3,0,0.4,0,0.4-0.2V19.4z M35.8,21.8c0,0.2,0.1,0.2,0.4,0.2
				c0.3,0,0.4,0,0.4-0.2l0-3.7c0-0.3-0.4-0.2-0.6-0.1c-0.2,0.1-0.2,0.2-0.2,0.5L35.8,21.8z M31.7,19.7c0.1-0.3,0.9-2.2,0.9-2.3
				c0,0,0,0,0.1,0c0.1,0.1,0.8,2,0.9,2.3c0,0.1,0,0.1-0.1,0.1h-1.7C31.6,19.8,31.7,19.7,31.7,19.7z M33.8,20.4
				c0.3,0.6,0.6,1.5,0.6,1.5c0,0.1,0,0.1,0.5,0.1c0.5,0,0.5,0,0.4-0.2c0-0.1-2-4.7-2.1-5c-0.1-0.3-0.2-0.3-0.6-0.3
				c-0.4,0-0.4,0-0.6,0.3c-0.1,0.3-2.1,4.9-2.1,5C30,22,30.1,22,30.4,22c0.3,0,0.3,0,0.4-0.1l0.6-1.5c0-0.1,0-0.1,0.2-0.1
				c0.4,0,1.6,0,2.1,0C33.8,20.3,33.8,20.3,33.8,20.4z M36.6,16.8c0-0.2-0.3-0.3-0.5-0.3c-0.3,0.1-0.4,0.3-0.4,0.5
				c0,0.2,0.3,0.3,0.5,0.3C36.5,17.2,36.7,17,36.6,16.8z M40.3,21.8c0,0.2,0.1,0.2,0.4,0.2c0.3,0,0.4,0,0.4-0.2l0-5.3
				c0-0.3-0.4-0.2-0.6-0.1c-0.2,0.1-0.2,0.2-0.2,0.5L40.3,21.8z M42.8,16.8c0-0.2-0.3-0.3-0.5-0.3c-0.3,0.1-0.4,0.3-0.4,0.5
				c0,0.2,0.3,0.3,0.5,0.3C42.7,17.3,42.8,17,42.8,16.8z M41.9,21.8c0,0.2,0.1,0.2,0.4,0.2c0.3,0,0.4,0,0.4-0.2l0-3.7
				c0-0.3-0.4-0.2-0.6-0.1c-0.2,0.1-0.2,0.2-0.2,0.5L41.9,21.8z M47.1,19.4c0-1.2-1.1-1.4-1.8-1.4c-0.6,0-1.2,0.2-1.5,0.3
				c-0.3,0.1-0.3,0.3-0.3,0.5l0,3.1c0,0.2,0.1,0.2,0.4,0.2c0.3,0,0.4,0,0.4-0.2l0-2.9c0-0.3,0.1-0.6,1-0.6c0.8,0,1,0.5,1,1l0,2.5
				c0,0.2,0.1,0.2,0.4,0.2c0.3,0,0.4,0,0.4-0.2V19.4z M55.3,20.9c0-1.4-2.6-1.1-2.6-2.1c0-0.4,0.4-0.5,0.8-0.5
				c0.6,0,0.8,0.2,0.9,0.5c0.1,0.1,0.2,0.3,0.4,0.3c0.2,0,0.3-0.1,0.3-0.3c0-0.3-0.4-0.8-1.6-0.8c-0.9,0-1.6,0.4-1.6,1.1
				c0,1.4,2.5,1.1,2.5,2.1c0,0.4-0.4,0.6-0.9,0.6c-0.5,0-0.8-0.2-1-0.6c-0.1-0.2-0.2-0.3-0.4-0.3c-0.2,0-0.3,0.1-0.3,0.3
				c0,0.3,0.5,0.9,1.7,0.9C54.6,22.1,55.3,21.7,55.3,20.9z M6.4,21.8C6.4,22,6.5,22,6.8,22c0.3,0,0.4,0,0.4-0.2l0-3.7
				c0-0.3-0.4-0.2-0.6-0.1c-0.2,0.1-0.2,0.2-0.2,0.5L6.4,21.8z M20.8,22.1c0.6,0,1-0.1,1.4-0.3c0.3-0.1,0.3-0.3,0.3-0.5v-2.2
				c0-0.8-0.7-1.2-1.5-1.2c-1.3,0-1.8,0.6-1.9,0.9c0,0.2,0.1,0.3,0.3,0.3c0.2,0,0.4-0.1,0.4-0.3c0.2-0.4,0.4-0.6,1-0.6
				c0.4,0,0.9,0.2,0.9,0.7v0.2c0,0.1,0,0.1-0.1,0.1c-1.2,0.2-2.7,0.6-2.7,1.7C18.9,21.7,19.7,22.1,20.8,22.1z M21.7,21.2
				c0,0.4-0.5,0.5-0.9,0.5c-0.7,0-1-0.3-1-0.7c0-0.7,0.9-1,1.9-1.2c0.1,0,0.1,0,0.1,0.1L21.7,21.2z M7.3,16.8c0-0.2-0.3-0.3-0.5-0.3
				c-0.3,0.1-0.4,0.3-0.4,0.5c0,0.2,0.3,0.3,0.5,0.3C7.2,17.3,7.3,17,7.3,16.8z M28.2,21.9c0,0.2,0.1,0.2,0.4,0.2
				c0.3,0,0.4,0,0.4-0.2v-2.6c0-1-1-1.3-1.6-1.3c-0.7,0-1.1,0.2-1.3,0.5c-0.3-0.3-0.7-0.5-1.3-0.5c-0.5,0-0.9,0.1-1.3,0.3
				c-0.3,0.1-0.3,0.3-0.3,0.5v3.2c0,0.2,0.1,0.2,0.4,0.2c0.3,0,0.4,0,0.4-0.2l0-2.9c0-0.4,0.4-0.6,0.8-0.6c0.6,0,0.9,0.3,0.9,0.9
				v2.5c0,0.2,0.1,0.2,0.4,0.2c0.3,0,0.4,0,0.4-0.2v-2.6c0-0.5,0.3-0.9,0.9-0.9c0.6,0,0.9,0.4,0.9,0.9L28.2,21.9z M8.7,19.4
				c0.1-0.5,0.4-1,1.2-1c0.6,0,1.2,0.4,1.2,0.9c0,0.2,0,0.2-0.2,0.2L8.7,19.4C8.7,19.4,8.7,19.4,8.7,19.4z M11.8,20.8
				c0-0.1-0.1-0.1-0.2-0.1c-0.1,0-0.1,0-0.2,0.1c-0.2,0.3-0.7,0.8-1.4,0.8c-0.9,0-1.4-0.6-1.4-1.7c0,0,0-0.1,0.1-0.1
				c0.1,0,1.4,0,2.8,0c0.3,0,0.3-0.2,0.3-0.3c0-0.8-0.8-1.6-1.9-1.6c-1.2,0-2,0.6-2,2.1c0,1.5,1.2,2.1,2.1,2.1
				C11.2,22.1,11.8,21.2,11.8,20.8z M48.5,19.4c0.1-0.5,0.4-1,1.2-1c0.6,0,1.2,0.4,1.2,0.9c0,0.2,0,0.2-0.2,0.2L48.5,19.4
				C48.5,19.4,48.4,19.4,48.5,19.4z M51.6,20.8c0-0.1-0.1-0.1-0.2-0.1c-0.1,0-0.1,0-0.2,0.1c-0.2,0.3-0.7,0.8-1.4,0.8
				c-0.9,0-1.4-0.6-1.4-1.7c0,0,0-0.1,0.1-0.1c0.1,0,1.4,0,2.8,0c0.3,0,0.3-0.2,0.3-0.3c0-0.8-0.8-1.6-1.9-1.6c-1.2,0-2,0.6-2,2.1
				c0,1.5,1.2,2.1,2.1,2.1C51,22.1,51.6,21.2,51.6,20.8z M3.1,21.8C3.2,22,3.2,22,3.6,22C4,22,4,22,4.1,21.7c0.1-0.3,1.6-4,2-5
				c0.1-0.2,0-0.2-0.3-0.2c-0.3,0-0.3,0-0.4,0.1c0,0-1.7,4.2-1.7,4.3c0,0,0,0-0.1,0c-0.1-0.1-1.7-4.3-1.7-4.3c0-0.1-0.1-0.1-0.5-0.1
				c-0.5,0-0.5,0-0.4,0.3C1.1,16.9,3,21.5,3.1,21.8z M12.6,18c-0.2,0-0.4,0-0.4,0C12,18,12,18.1,12,18.2c0,0.1,0,0.2,0.1,0.2h0.4
				c0.1,0,0.1,0,0.1,0.1c0,0.2,0,2.5,0,2.5c0,0.9,0.5,1,1,1c0.5,0,0.8-0.1,0.8-0.3c0-0.1-0.1-0.1-0.2-0.1c-0.1,0-0.1,0-0.2,0
				c-0.3,0-0.6-0.1-0.6-0.6l0-2.5c0-0.1,0-0.1,0.1-0.1h0.7c0.1,0,0.1-0.1,0.1-0.2c0-0.1,0-0.2-0.1-0.2h-0.7c-0.1,0-0.1,0-0.1-0.1
				v-0.9c0-0.1-0.1-0.2-0.2-0.2c-0.1,0-0.1,0-0.3,0.2c-0.2,0.1-0.3,0.2-0.3,0.5L12.6,18C12.7,18,12.7,18,12.6,18z"/>
		</g>
	</g>
</g>
</svg>
